<svg xmlns="http://www.w3.org/2000/svg" width="386.923" height="320"><g transform="translate(-5.738 .008)"><circle cx="160" cy="160" r="160" transform="translate(9.738 -.008)" fill="#d2dcea"/><path d="M8.294 81.938l-.318 110.313 131.779-76.683.317-110.314z" fill="#fff"/><path d="M73.646 97.093l-2.828 1.628V80.808l2.833-1.64z" fill="#f2b60a"/><path d="M81.513 92.554l-2.837 1.631V67.721l2.837-1.636z" fill="#71a9e6"/><path d="M89.37 88.007l-2.829 1.644v-22.67l2.829-1.636z" fill="#f1484f"/><path d="M97.237 83.475l-2.835 1.629V67.191l2.837-1.64z" fill="#f2b60a"/><path d="M105.098 78.937l-2.831 1.632V62.648l2.831-1.628z" fill="#71a9e6"/><path d="M112.957 74.39l-2.83 1.645V47.724l2.831-1.636z" fill="#f1484f"/><path d="M120.823 69.86l-2.836 1.632V58.673l2.835-1.632z" fill="#f2b60a"/><path d="M128.682 65.312l-2.835 1.636v-37l2.835-1.637z" fill="#71a9e6"/><path d="M132.832 25.811l-66.169 38.21v-.44l66.169-38.206zm0 6.224L66.663 70.241v-.444l66.169-38.206zm0 6.221L66.663 76.462v-.444l66.169-38.2zm0 6.217L66.663 82.686v-.444l66.169-38.2zm0 6.224L66.663 88.903v-.444l66.169-38.2zm0 6.22l-66.169 38.21v-.444l66.169-38.2zm0 6.224l-66.169 38.206v-.448l66.169-38.2z" fill="#565656" opacity=".5"/><path d="M31.411 83.623l13.629-7.869v13.658l-13.629 7.869z" fill="#dd4919"/><path d="M14.766 93.236l13.648-7.878v13.654l-13.648 7.877z" fill="#95d8e9"/><path d="M48.057 74.015l13.633-7.873V79.8l-13.633 7.868z" fill="#71a9e6"/><path d="M48.047 120.938v-13.633l13.654-7.886v13.629z" fill="#dd4919"/><path d="M48.047 137.579V123.93l13.653-7.886v13.654z" fill="#27aae1"/><path d="M48.047 154.543v-13.65l13.653-7.885v13.649z" fill="#f1484f"/><path d="M48.047 104.29V90.653l13.654-7.881v13.633z" fill="#f2b60a"/><path d="M66.698 122.232l.01-17.633 16.365-9.448v17.63z" fill="#dd4919"/><path d="M66.698 143.766v-17.657l16.375-9.448v17.654z" fill="#95d8e9"/><path d="M45.206 156.179V92.105l-30.44 17.575v64.078z" fill="#184f78"/><path d="M26.379 105.507l-6.254 14.176 12.507-7.219z" fill="#95d8e9"/><path d="M32.632 112.464l-6.253-6.957v10.567z" fill="#fff"/><path d="M26.379 118.914l6.253-6.45-12.507 7.219z" fill="#f1484f"/><path d="M20.125 119.683l6.253-.769v-2.841z" fill="#f2b60a"/><path d="M26.379 124.162l6.253 1.127-12.507 7.217z" fill="#95d8e9"/><path d="M20.125 132.506l6.254-8.344v4.74z" fill="#fff"/><path d="M26.379 131.733l-6.253.773 12.507-7.219z" fill="#f1484f"/><path d="M32.632 125.287l-6.253 6.446v-2.832z" fill="#f2b60a"/><path d="M26.379 138.731l-6.254 10.681 12.507-7.228z" fill="#f1484f"/><path d="M32.632 142.184l-6.253-3.453v7.071z" fill="#fff"/><path d="M26.379 148.639l6.253-6.455-12.507 7.228z" fill="#95d8e9"/><path d="M20.125 149.411l6.253-.773v-2.836z" fill="#f2b60a"/><path d="M26.379 154.472l6.253 1.118-12.507 7.225z" fill="#f1484f"/><path d="M20.125 162.815l6.254-8.343v4.736z" fill="#fff"/><path d="M26.379 164.369l-6.254-1.554 12.507-7.228z" fill="#95d8e9"/><path d="M32.632 155.587l-6.253 8.782v-5.164z" fill="#f2b60a"/><path d="M37.84 108.969v-6.757l3.213-1.858v6.751zm-.063 15.775v-6.755l3.217-1.862v6.759zm0 15.734v-6.751l3.217-1.854v6.751zm.063 15.701v-6.751l3.213-1.862v6.755zm68.449-52.314c1.356 1.023 2.155 2.816 2.155 5.262 0 6.024-4.875 13.724-10.9 17.206s-10.911 1.415-10.911-4.614l10.908-6.29z" fill="#27aae1"/><path d="M96.463 105.431v9.216a.606.606 0 01-.29.459l-9.208 5.312c-.16.1-.286.042-.286-.122 0-5.212 4.214-11.88 9.409-14.924l.084-.063c.16-.097.291-.043.291.122z" fill="#dd4919"/><path d="M97.839 107.535v.765l3.77.058.584-.757zm0 3.187v.761l1.349.02.58-.752zm0 1.599v.76h.132l.576-.748zm0-3.186v.753l2.559.041.586-.748zm2.022-5.598l4.976.076a6.145 6.145 0 00-4.976-.076zm-1.836.799c-.055.034-.122.063-.181.1v.661l6.2.1.585-.749zm-.186 1.596v.765l4.987.083.582-.757z" fill="#ff5f29"/><path d="M133.007 95.07l-10.905 6.294V90.456c-6.029 3.477-10.908 11.182-10.908 17.208s4.879 8.079 10.908 4.6c6.012-3.47 10.905-11.174 10.905-17.194z" fill="#f2b60a"/><path d="M133.006 95.07c0-6.024-4.892-8.083-10.9-4.614v10.907z" fill="#95d8e9"/><path d="M133.005 67.146L93.281 90.079v-.88l39.724-22.933z" fill="#fd6220"/><path d="M92.194 93.643l-5.055 2.915v-3.807l5.055-2.923z" fill="#27aae1"/><path d="M133.005 71.924L87.139 98.4v-.871l45.866-26.477zm0 4.78l-45.866 26.477v-.876l45.866-26.476zm0 4.774l-45.866 26.485v-.88l45.866-26.477z" fill="#71a9e6"/><g style="isolation:isolate"><path d="M174.33 139.598l.078 74.34 21.6 12.547-.082-74.336z" fill="#a02b13"/><path d="M195.922 152.15l.087 74.335 21.736-12.547-.083-74.34z" fill="#bc2e08"/></g><g style="isolation:isolate"><path d="M143.516 172.706l.083 59.017 21.593 12.554-.082-59.025z" fill="#f99b1d"/><path d="M165.11 185.254l.082 59.025 21.734-12.556-.08-59.017z" fill="#fdc00f"/></g><g style="isolation:isolate"><path d="M112.702 205.827l.082 43.687 21.59 12.556-.077-43.7z" fill="#149393"/><path d="M134.297 218.37l.078 43.695 21.732-12.548-.078-43.69z" fill="#09a6ad"/></g><g style="isolation:isolate"><path d="M81.89 238.926l.08 28.384 21.593 12.548-.08-28.384z" fill="#1b5e92"/><path d="M103.482 251.474l.08 28.384 21.734-12.548-.08-28.384z" fill="#2777ad"/></g><g style="isolation:isolate"><path d="M51.072 272.03l.082 13.066 21.59 12.548-.078-13.058z" fill="#b3d7e5"/><path d="M72.666 284.586l.078 13.058 21.738-12.548-.082-13.066z" fill="#d1e9f5"/><path d="M51.072 272.029l21.594 12.556 21.735-12.556-21.592-12.547z" fill="#dcdcdc"/></g><path d="M174.33 139.597l21.593 12.552 21.735-12.552-21.6-12.544zm-30.814 33.112l21.594 12.544 21.741-12.544-21.6-12.551zm-30.814 33.113l21.595 12.547 21.732-12.547-21.594-12.552zM81.89 238.926l21.592 12.548 21.734-12.548-21.594-12.548z" fill="#dcdcdc"/><path d="M174.33 139.597l21.593 12.552 21.735-12.552-21.6-12.544z" fill="#ff3912"/><path d="M143.516 172.709l21.594 12.544 21.741-12.544-21.6-12.551z" fill="#ffd366"/><path d="M112.702 205.822l21.595 12.547 21.732-12.547-21.594-12.552z" fill="#16c5d5"/><path d="M81.89 238.926l21.592 12.548 21.734-12.548-21.594-12.548z" fill="#3c91bf"/><path d="M51.072 272.029l21.594 12.556 21.735-12.556-21.592-12.547z" fill="#fff"/><path d="M169.791 129.155l21.594 12.551v15.681l-21.594-12.548zm-30.812 33.108l21.59 12.551v15.685l-21.59-12.548z" fill="#0c2538"/><path d="M138.979 162.264l21.59 12.547 30.814-17.423-21.591-12.548z" fill="#163551"/><path d="M145.971 117.731L120.2 140.793l9.721 5.4c-33.4 43.847-78.587 83.079-124.185 111.012l1.486.871c46.6-26.691 95.755-62.366 131.725-105.846l11.813 7.5z" fill="#ff3912"/><path d="M108.163 195.375l21.59 12.544v16.387l-21.59-12.545z" fill="#0c2538"/><path d="M108.163 195.377l21.59 12.544L160.57 190.5l-21.591-12.548z" fill="#163551"/><path d="M78.862 228.483l21.593 12.548v15.557l-21.593-12.547z" fill="#0c2538"/><path d="M78.862 228.483l21.593 12.548 29.3-16.725-21.592-12.547zm-31.27 33.803l21.592 12.548 31.27-18.246-21.592-12.547z" fill="#163551"/><g transform="translate(63.208 185.256)"><circle cx="2.309" cy="2.309" r="2.309" transform="translate(43.088 23.996)" fill="#ffd997"/><path d="M9.641 42.102a64.332 64.332 0 005.347-3.6v.707a67.209 67.209 0 01-5.342 3.612zm-.61 2.294a1.4 1.4 0 00.61-.964v.073a1.707 1.707 0 01-.775 1.339l-.956.552c-.429.248-.775.051-.779-.442v-.076c.046.312.307.434.615.253z" fill="#cc330a"/><path d="M9.645 42.817a67.027 67.027 0 005.342-3.612l.021 6.538a1.38 1.38 0 01-.627 1.086l-11.956 6.9c-.341.2-.623.042-.627-.349l-.017-6.546a48.854 48.854 0 005.347-2.568v.692c0 .493.349.69.779.442l.956-.551a1.707 1.707 0 00.775-1.339v-.183zM2.661 53.282a.788.788 0 00.1-.076.856.856 0 01-.4-.021.769.769 0 01-.227-.333c-.063.429.2.61.53.429zm11.485-6.635a1.141 1.141 0 00.526-1.036 2.886 2.886 0 01-.227.589 3.085 3.085 0 01-.4.5l.1-.051z" fill="#ff5f29"/><path d="M9.642 41.912v1.519a1.4 1.4 0 01-.61.964l-1.284.737c-.307.181-.568.059-.615-.253v-1.51z" fill="#fdc00f"/><path d="M1.781 46.829v-.707a49.847 49.847 0 005.347-2.568v.707a48.854 48.854 0 01-5.347 2.568z" fill="#cc330a"/><path d="M14.347 35.77c.349-.2.631-.034.631.362l.008 2.366a64.332 64.332 0 01-5.347 3.6v-.189l-2.516 1.46v.185a49.847 49.847 0 01-5.347 2.568v-2.37a1.379 1.379 0 01.623-1.078z" fill="#ff5f29"/><path d="M.009 44.577v1.644l1.334 1.332.428-.263.01-1.686z" fill="#cc330a"/><path d="M13.026 34.7a.438.438 0 00-.446.042l-11.952 6.9a1.406 1.406 0 00-.627 1.086v2.376l1.768 1.027v-2.379a1.379 1.379 0 01.623-1.078l11.952-6.9a.446.446 0 01.45-.042c-.59-.35-1.183-.687-1.768-1.032zM1.798 53.376l-.017-6.546-1.768-1.028.017 6.534a.44.44 0 00.181.4c.354.215.707.413 1.061.627l.535.3.177.105a.434.434 0 01-.186-.392z" fill="#ce4d21"/><path d="M14.671 45.613a1.141 1.141 0 01-.526 1.036l-.1.051a3.085 3.085 0 00.4-.5 2.886 2.886 0 00.226-.587zM2.128 52.854a.769.769 0 00.227.333.855.855 0 00.4.021.788.788 0 01-.1.076c-.327.18-.588-.001-.527-.43z" fill="#fdc00f"/><g style="isolation:isolate"><path d="M5.618 40.119l-.532-.3v-.773l.53.312zm-.005-.765l-.53-.312.522-.3.53.313z" fill="#fdc00f"/><path d="M6.135 39.05v.765l-.522.3v-.765z" fill="#eeb50e"/></g><g style="isolation:isolate"><path d="M9.41 37.931l-.532-.312v-.765l.532.3z" fill="#fdc00f"/><path d="M9.407 37.158l-.529-.3.526-.3.53.3z" fill="#fdc00f"/><path d="M9.931 36.854v.765l-.522.312v-.773z" fill="#eeb50e"/></g><g style="isolation:isolate"><path d="M9.629 37.035l-.532-.312v-.312l.53.3zm-.292.165l-.53-.312.29-.165.532.312z" fill="#ce4d21"/><path d="M9.337 37.2l-.53-.312v-.317l.53.312z" fill="#cc330a"/><path d="M9.337 37.2l-.53-.312v-.317l.53.312zm-.487-1.388l.53.312a.658.658 0 01.248.589l-.53-.3a.665.665 0 00-.248-.601z" fill="#ce4d21"/><path d="M8.643 36.145l.53.312a.471.471 0 01.164.425l-.53-.312a.487.487 0 00-.164-.425z" fill="#ce4d21"/><path d="M6.515 37.898l-.53-.312 2.506-1.447.532.312z" fill="#ce4d21"/><path d="M6.515 37.586l-.53-.3 2.506-1.447.53.3z" fill="#cc330a"/><path d="M8.644 36.14l.53.312a.161.161 0 00-.152 0l-.53-.312a.161.161 0 01.152 0z" fill="#ce4d21"/><path d="M8.85 35.812l.53.312a.327.327 0 00-.358.017l-.53-.307a.337.337 0 01.358-.022z" fill="#cc330a"/><path d="M9.09 35.374l.53.3a.583.583 0 00-.6.059l-.535-.312a.587.587 0 01.605-.047zm-3.174 3.799l-.53-.3.292-.173.53.312z" fill="#ce4d21"/><path d="M5.914 39.174l-.53-.3v-.312l.532.312z" fill="#cc330a"/><path d="M6.206 38.687l-.53-.312a1.02 1.02 0 01.312-.787l.526.312a1.02 1.02 0 00-.308.787zm-.627.683l-.532-.312v-.321l.532.313z" fill="#ce4d21"/><path d="M5.914 38.868l-.53-.312a1.592 1.592 0 01.606-1.276l.526.307a1.6 1.6 0 00-.602 1.281z" fill="#cc330a"/><path d="M9.023 35.735c.526-.312.939.034.939.783v.32l-.029.017-.522.3-.072.042v-.324c0-.341-.168-.509-.316-.425l-2.509 1.451a1.02 1.02 0 00-.307.787 1.02 1.02 0 01.307-.787l2.509-1.45c.147-.084.312.084.316.425v.324l.29-.164v-.324c-.008-.5-.278-.762-.606-.573l-2.509 1.448a1.6 1.6 0 00-.6 1.28v.3l.295-.164-.072.042-.522.3-.034.017v-.311a2.288 2.288 0 01.935-1.873z" fill="#ce4d21"/><path d="M9.018 36.14c.328-.189.6.072.606.573v.324l-.29.164v-.324c0-.341-.168-.509-.316-.425l-2.5 1.446a1.02 1.02 0 00-.307.787v.32l-.295.164v-.3a1.6 1.6 0 01.6-1.28z" fill="#ff5f29"/><path d="M6.511 37.175l-.528-.3 2.506-1.447.532.313z" fill="#ce4d21"/><path d="M5.579 39.05l-.535-.312a2.3 2.3 0 01.939-1.865l.53.3a2.288 2.288 0 00-.934 1.877z" fill="#ce4d21"/></g><path d="M9.813 36.073a2.309 2.309 0 11-2.311-2.311 2.312 2.312 0 012.311 2.311z" fill="#ffd997"/><path d="M10.222 33.779c-.682 1.76-1.2 2.046-2.829 1.68-1.629-.37-1.747-1.377-1.381-3l2.939-9.746 5.961-7.877c3.141 3.149 2.661 5.987 2.661 5.987l-4.409 5.155z" fill="#2777ad"/><path d="M9.986 67.731s-.505 2.547.223 3.073c.93.682 3.17.707 5.734-.787 2.564-1.516 2.833-2.257 2.892-2.623s-2.121-2.113-8.849.337zm25.142-18.986s-.509 2.539.227 3.065c.926.682 3.17.716 5.734-.8s2.833-2.244 2.888-2.614-2.122-2.11-8.849.349z" fill="#1b5e92"/><path d="M15.862 68.477c-.253 1.861-1.966 2.459-3.823 2.214-1.861-.257-3.157-1.276-2.9-3.132l5.9-34.34c6.8.922 6.21 5.78 6.21 5.78z" fill="#2777ad"/><path d="M12.04 70.692a3.431 3.431 0 002.539-.69c-1.132.362-2.555-.312-2.185-1.44l5.191-25.474c-4.533-1.815-2.548-9.256-2.548-9.256l-.105-.067-5.8 33.8c-.25 1.851 1.047 2.867 2.908 3.127z" fill="#3c91bf"/><path d="M36.925 31.64c-2.442-.122-9.009 2.467-9.009 2.467l-.063-4.315c0-.059.008-.131.008-.206l.1-11.118-.29-2.454s-2.235-.817-5-1.819-6.18-.8-6.875.914a9.341 9.341 0 00-.665 3.24c0 .076 1.381 11.274 1.381 11.346l-1.473 5.414c.046 3.04.046 3.04 2.235 3.8 3.444 1.2 2.779 5.132 8.054 4.1 2.1-.413 8.289-3.621 8.289-3.621v9.557c-.114 1.865 1.314 2.779 3.187 2.884s3.477-.615 3.583-2.492l.223-12.7s.025-2.408-.728-3.414a3.562 3.562 0 00-2.957-1.583z" fill="#3c91bf"/><path d="M14.322 37.306s5.317 3.839 7.38 4.475c2.816.871 8.715-2.854 8.441-4.18-.135-.665-1.7-3.048-1.857-3.658V23.549l-.618-7.535s-8.605-4.964-11.9-2.113c-1.234 1.061-1.991 1.141-.619 15.581a73.823 73.823 0 01-.827 7.824z" fill="#2777ad"/><path d="M21.702 41.782c-2.063-.636-7.38-4.475-7.38-4.475l-.1.6s5.262 3.7 7.338 4.273c4.353 1.225 8.858-3.2 8.584-4.521V37.6c.273 1.328-5.625 5.054-8.442 4.182z" fill="#1b5e92"/><path d="M17.972 13.773s.08 2.416 3.284 2.164c0 0 1.667.105 2.059-1.069v-3.145l-5.342-1.44z" fill="#ffd997"/><path d="M16.856 7.61c.143 3.734.152 6.774 5.532 6.782 3.886.008 5.456-2 6.117-5.688.935-5.246-2.442-7.936-6.328-7.877s-5.561.586-5.321 6.783z" fill="#ffd997"/><path d="M23.693 8.89c1.25-1.124 2.189.813 2.189.813l.749-.876s2.72-6.176 1.911-6.837c-5.279-4.307-11.312-.295-11.312-.295-1.015.972-1.646 3.1-1.537 5.991.126 3.212 1.015 5.839 4.673 6.53a7.218 7.218 0 002.551.072l1.49-2.307c-1.008-.464-1.257-2.591-.714-3.091z" fill="#082537"/><path d="M27.934 21.018l-4.045-1.226 4.025 15.006z" fill="#1b5e92"/><path d="M43.021 24.247c1.823.463 2.518.354 2.353 2.017-.164 1.654-.8 2.5-2.454 2.328l-10.04-1.714-12.424-8.992c2.736-3.495 7.212-1.874 7.212-1.874l7.24 6.29zm-6.217 27.58a3.186 3.186 0 001.562-.32 2.006 2.006 0 01-2.265-1.89l-.118-8.955-2.366-1.267v9.548c-.114 1.865 1.313 2.779 3.187 2.884z" fill="#2777ad"/><path d="M23.555 14.636c-4.681.265-5.679-1.166-5.679-1.166l-.278.585a2.263 2.263 0 001.878 1.9 5.164 5.164 0 005.253-1.365c-.033-.009-.26 0-1.174.046z" fill="#fff"/></g><path d="M214.826 126.923l.65.6 8.387-5.41-6.437-4.673z" fill="#0c2538"/><g style="isolation:isolate"><path d="M253.303 85.676l12.234-7.106c1.284-.749 3.1-.627 5.107.53l-12.217 7.111c-2.009-1.169-3.819-1.275-5.124-.535zm5.123.536l12.219-7.112 1.39.806-12.227 7.1zm74.595-10.1l12.235-7.1-.189 65.007-12.227 7.107z" fill="#ffc19c"/><path d="M332.838 141.125l-4.955-62.076c-.307-.619-.594-1.221-.808-1.793-3.781-10.912-42.714-24.717-42.714-24.717l-24.2-.838c-1.259.737-23.79 10.255-23.79 10.255l22.056 45.216a284.911 284.911 0 0136.277 19.534c.362.244.758.48 1.166.716 8.125 4.69 24.594 10.243 38.079 14.335z" fill="#f5b285"/><g style="isolation:isolate"><path d="M279.893 113.807l-7.317 3.153-2.147-1.309-9.708-5.9c-1.705-.977-3.233-1.082-4.328-.442l-6.955 4.046c1.095-.636 2.614-.543 4.315.45l12.836 7.778a12.975 12.975 0 015.987 10.2 4.066 4.066 0 01-1.7 3.713l13.3-7.78a4.047 4.047 0 001.7-3.713 13.006 13.006 0 00-5.983-10.196z" fill="#f5b285"/><path d="M266.59 121.583a12.975 12.975 0 015.987 10.2c-.008 3.713-2.69 5.2-6.029 3.263l-12.824-7.784a13 13 0 01-5.995-10.2c.008-3.713 2.686-5.187 6.024-3.254z" fill="#ffc19c"/></g><g style="isolation:isolate"><path d="M272.542 98.63l-20.169-11.662c-2.012-1.149.594.9-.69 1.646l-8.146 4.736c1.288-.749 3.082-.627 5.081.518l15.779 9.506c3.9 2.24 7.039 7.582 7.014 11.935-.008 2.113-.758 3.629-1.991 4.349l8.15-4.74c1.225-.716 1.979-2.223 2-4.349.012-4.336-3.121-9.691-7.028-11.939z" fill="#f5b285"/><path d="M264.401 103.375c3.9 2.24 7.039 7.582 7.014 11.935s-3.157 6.075-7.064 3.823l-15.784-9.493c-3.9-2.252-7.039-7.595-7.014-11.944.008-4.357 3.149-6.071 7.064-3.827z" fill="#ffc19c"/></g><g style="isolation:isolate"><path d="M269.297 76.338l-15.788-9.493c-2-1.149-3.785-1.263-5.073-.522l-8.15 4.736c1.284-.741 3.086-.627 5.073.518l15.776 9.506c3.915 2.244 7.039 7.591 7.022 11.939-.017 2.122-.77 3.625-1.987 4.34l8.146-4.736c1.225-.707 1.991-2.214 1.991-4.349.028-4.336-3.103-9.686-7.01-11.939z" fill="#f5b285"/><path d="M260.902 84.337c3.911 2.252 7.039 7.6 7.014 11.944-.008 4.345-3.149 6.075-7.064 3.831l-15.77-9.493c-3.907-2.257-7.047-7.6-7.022-11.956s3.149-6.075 7.056-3.823z" fill="#ffc19c"/></g><path d="M234.974 74.482c-2.8 3.557-4.471 9.7-2.589 13.632a4.445 4.445 0 001.7 1.904c1.3.261 3.6-.884 5.271-3.01l5.94-8.908c3.911-2.263 10.205-9.882 10.184-14.24s-10.011-1.213-13.926 1.048z" fill="#f5b285"/></g><path d="M329.625 69.616L284.362 52.54s-4.58 14.613-2.1 16.069c17.8 10.492-2.563 13.316-7.72 10.345-10.057-5.806-23.171 35.03 56.127 35.03l2.349-37.868c-.303-.623-3.178-5.928-3.393-6.5z" fill="#ffc19c"/><path d="M261.07 50.995a16.437 16.437 0 00-9.169 1.553l-12.238 5.953a21.471 21.471 0 00-7.148 6.264l-5.835 8.79c-2.8 3.557-2.93 6.062-1.276 10.087a8.339 8.339 0 003.052 3.368l5.629 3.01c-.674-.56-.72-.7-1.175-1.8-1.642-4.029-.733-10.18 2.063-13.737l6.58-9.573 17.573-8.219-2.4-3.187 4.606 3.427 4.867-3.427-1.97 4.875 17.539 9.569s6.159-6.109 11.864-11.822c-5.4-2.214-6.833-3.086-9.266-3.587-5.719-1.178-23.296-1.544-23.296-1.544z" fill="#ffc19c"/><path d="M280.634 39.927l-56.139 81.551a2.538 2.538 0 01-.838.766c-1.6.93-4.029.278-5.427-1.431a3.363 3.363 0 01-.467-4.029l56.132-81.551a3.361 3.361 0 00.48 4.029c1.389 1.713 3.831 2.362 5.418 1.436a2.511 2.511 0 00.838-.77z" fill="#0c2538"/><path d="M282.675 83.366c3.894 2.257 7.035 7.6 7.01 11.944 0 4.349-3.145 6.083-7.052 3.831L255.614 84.46c-3.907-2.249-12.516-6.331-12.491-10.676.008-2.042 6.176-4.787 7.308-5.528 1.292-.838 3.149-.766 5.216.434z" fill="#ffc19c"/><path d="M276.361 87.407c3.894 2.261 7.026 7.6 7.005 11.944 0 4.353-3.141 6.083-7.056 3.831l-27.019-14.677c-3.907-2.252-7.038-7.609-7.014-11.956s3.157-6.067 7.056-3.814z" fill="#ffc19c"/><path d="M248.016 76.196c-2.328-1.339-4.227-.278-4.244 2.412a9.277 9.277 0 004.21 7.292l2.433 1.44c0-.387 1.92.669 1.924-3.679.008-4.4-1.9-5.464-1.9-6.02z" fill="#ffdfcf"/><path d="M280.167 35.898c1.389 1.709 1.233 3.873-.37 4.8-1.587.926-4.029.278-5.418-1.436s-1.234-3.873.362-4.8 4.037-.282 5.426 1.436z" fill="#163551"/><g style="isolation:isolate"><path d="M342.306 67.754c-5.839-2.24-14.036-1.006-23.2 4.218-18.18 10.369-33.243 32.594-33.651 49.606-.186 8.458 3.254 14.04 9.009 16.246l41.321 22.094c-5.755-2.2-9.211-7.78-9.013-16.229.4-17.029 15.467-39.249 33.654-49.623 9.161-5.225 17.358-6.441 23.205-4.214z" fill="#fff"/><path d="M360.425 94.067c-18.187 10.373-33.255 32.593-33.655 49.621-.417 17 14 22.38 32.185 12s33.284-32.577 33.7-49.6-14.035-22.407-32.23-12.021z" fill="#cceaf2"/></g><path d="M169.791 129.159l21.594 12.548 10.62-6.113-14.213-9.913 20.024 6.562-13.5-11.417 21.391 6.874-26.074-9.97 11.28 10.656-19.44-5.953 11.875 9.842-16.1-7.589z" fill="#163551"/><path d="M241.823 213.92l31.566 18.229-25.078 14.571-31.575-18.229z" fill="#fff"/><path d="M200.574 169.35l1.667.977c1.68.968 4 .834 6.555-.64a16.6 16.6 0 004.4-3.839c.08-.093.156-.189.236-.286a22.258 22.258 0 003.287-5.69 2.336 2.336 0 00.084-.219 16.538 16.538 0 001.166-5.864 7.834 7.834 0 00-1.191-4.5c-.3-.181-.042-.029 0 0-.034-.051-.059-.093-.088-.13a4.742 4.742 0 00-.9-.935c-.56-.32-1.111-.644-1.671-.968a4.956 4.956 0 01.9.93c.034.046.067.088.093.131l.063.034.059.042c-.042-.029-.084-.051-.122-.076a7.881 7.881 0 011.191 4.5 16.406 16.406 0 01-1.166 5.86 2.53 2.53 0 01-.084.223 22.277 22.277 0 01-3.288 5.692c-.084.1-.156.194-.24.29a16.529 16.529 0 01-4.4 3.835c-2.547 1.479-4.875 1.614-6.551.633z" fill="#cc330a"/><path d="M208.211 169.27c5.081-2.93 9.2-10.074 9.186-15.9s-4.164-8.2-9.245-5.267-9.19 10.062-9.178 15.9 4.162 8.193 9.237 5.267z" fill="#fff"/><g style="isolation:isolate"><path d="M208.943 157.865a.717.717 0 01.059.316 1.294 1.294 0 01-.059.387l6.626-3.827v-.7z" fill="#dd4919"/><path d="M205.002 157.599l-.509 1.271 2.88.341v-.088a1.768 1.768 0 01.509-1.17z" fill="#95d8e9"/><path d="M208.26 148.531a1.337 1.337 0 00-.609 1.047c0 .387.282.543.619.345a1.368 1.368 0 00.606-1.052c-.001-.383-.279-.538-.616-.34z" fill="#dd4919"/><path d="M204.223 168.629a.916.916 0 00-.37.467c-.114.3-.051.568.156.581a.367.367 0 00.223-.055.971.971 0 00.362-.463c.131-.32.046-.573-.16-.589a.382.382 0 00-.211.059z" fill="#95d8e9"/><path d="M207.882 157.953a1.768 1.768 0 00-.509 1.17v.088c.042.45.4.619.821.37a1.775 1.775 0 00.749-1.015 1.294 1.294 0 00.059-.387.717.717 0 00-.063-.317l-.446-.261a.865.865 0 00-.32.114 1.445 1.445 0 00-.291.238zm.3 1.031c-.164.088-.286.017-.286-.168a.623.623 0 01.286-.5c.156-.093.29-.021.29.164a.651.651 0 01-.29.5z" fill="#3475b9"/><path d="M212.394 163.906c.147-.08.295-.08.379.034a.73.73 0 01-.156.775.963.963 0 01-.215.189.275.275 0 01-.379-.034.755.755 0 01.156-.775 1.193 1.193 0 01.215-.189zm2.985-5.166a.908.908 0 00-.37.463c-.122.307-.051.573.156.594a.362.362 0 00.223-.067.922.922 0 00.37-.459c.114-.307.051-.568-.156-.585a.367.367 0 00-.223.054z" fill="#95d8e9"/><path d="M216.465 153.209a1.337 1.337 0 00-.61 1.052c0 .387.274.543.61.349a1.339 1.339 0 00.615-1.057c-.004-.382-.273-.538-.615-.344z" fill="#dd4919"/><path d="M215.354 149.344a1.066 1.066 0 00-.215.189.731.731 0 00-.156.77.273.273 0 00.379.029.962.962 0 00.215-.189.738.738 0 00.156-.77.278.278 0 00-.379-.029zm-14.134 17.575a.993.993 0 00-.219.189.715.715 0 00-.152.766c.076.118.223.122.37.042a.993.993 0 00.219-.189.755.755 0 00.156-.775c-.087-.116-.226-.116-.374-.033zm11.132-19.285a.955.955 0 00-.375.463c-.118.312-.042.568.164.585a.383.383 0 00.211-.059.939.939 0 00.379-.463c.118-.3.042-.568-.164-.581a.363.363 0 00-.215.055z" fill="#95d8e9"/><path d="M200.11 162.651a1.339 1.339 0 00-.606 1.052c0 .383.278.543.615.354a1.365 1.365 0 00.606-1.052c-.004-.392-.278-.552-.615-.354zm8.075 4.989a1.326 1.326 0 00-.606 1.052c0 .387.269.543.615.345a1.341 1.341 0 00.6-1.052c.003-.388-.272-.543-.609-.345z" fill="#dd4919"/><path d="M201.201 157.524a.9.9 0 00-.375.459c-.118.307-.051.577.152.594a.377.377 0 00.223-.063.961.961 0 00.379-.467c.114-.295.042-.564-.164-.585a.4.4 0 00-.215.062zm2.98-5.17a.99.99 0 00-.223.189.745.745 0 00-.156.775.283.283 0 00.379.034.891.891 0 00.215-.189.73.73 0 00.156-.775c-.085-.114-.224-.114-.371-.034z" fill="#95d8e9"/><path d="M208.185 158.32a.623.623 0 00-.286.5c0 .185.122.257.286.168a.651.651 0 00.29-.5c.001-.189-.134-.261-.29-.168z" fill="#fff"/></g><path d="M207.061 146.254c2.867-1.655 5.465-1.81 7.351-.716l.581.341.173.1c.274.164.551.324.834.484l.08.051c-1.882-1.095-4.479-.943-7.351.716-5.7 3.288-10.323 11.3-10.306 17.846.013 3.25 1.162 5.544 3.019 6.622-.556-.32-1.107-.644-1.667-.968-1.852-1.078-3.01-3.368-3.023-6.622-.018-6.555 4.609-14.566 10.309-17.854z" fill="#cc330a"/><path d="M198.422 165.069c.021 6.55 4.673 9.2 10.373 5.91s10.327-11.3 10.3-17.842-4.669-9.207-10.369-5.911-10.321 11.296-10.304 17.843zm10.373 4.617c-5.081 2.934-9.228.568-9.245-5.262s4.1-12.975 9.178-15.905 9.224-.573 9.241 5.267-4.1 12.967-9.173 15.9z" fill="#ff5f29"/></g></svg>