<svg xmlns="http://www.w3.org/2000/svg" width="205.642" height="200"><g transform="translate(-5.738 29.6)"><circle cx="100" cy="100" r="100" transform="translate(6.347 -29.6)" fill="#d2dcea"/><path d="M7.096 46.01l-.169 58.63 70.037-40.756.168-58.63z" fill="#fff"/><path d="M41.829 54.064l-1.5.863v-9.52l1.506-.872z" fill="#f2b60a"/><path d="M46.01 51.652l-1.507.869V38.454l1.507-.872z" fill="#71a9e6"/><path d="M50.186 49.235l-1.5.874V38.064l1.5-.869z" fill="#f1484f"/><path d="M54.368 46.824l-1.508.867v-9.52l1.508-.872z" fill="#f2b60a"/><path d="M58.544 44.415l-1.5.867v-9.525l1.5-.865z" fill="#71a9e6"/><path d="M62.723 42.003l-1.5.874V27.826l1.5-.869z" fill="#f1484f"/><path d="M66.903 39.59l-1.507.867v-6.813l1.507-.867z" fill="#f2b60a"/><path d="M71.082 37.177l-1.507.869V18.377l1.507-.87z" fill="#71a9e6"/><path d="M73.286 16.18L38.118 36.488v-.234l35.168-20.306zm0 3.308L38.118 39.794v-.236l35.168-20.306zm0 3.306L38.118 43.1v-.236l35.167-20.3zm0 3.307L38.118 46.407v-.236l35.167-20.3zm0 3.305L38.118 49.712v-.236l35.167-20.3zm0 3.305L38.118 53.02v-.236l35.167-20.3zm0 3.309L38.118 56.326v-.24l35.168-20.3z" fill="#565656" opacity=".5"/><path d="M19.382 46.906l7.243-4.182v7.259l-7.244 4.182z" fill="#dd4919"/><path d="M10.536 52.015l7.253-4.187v7.256l-7.253 4.187z" fill="#95d8e9"/><path d="M28.23 41.798l7.246-4.184v7.259l-7.246 4.183z" fill="#71a9e6"/><path d="M28.225 66.738v-7.246l7.257-4.191v7.243z" fill="#dd4919"/><path d="M28.225 75.583v-7.255l7.257-4.191v7.257z" fill="#27aae1"/><path d="M28.225 84.598v-7.254l7.256-4.191v7.254z" fill="#f1484f"/><path d="M28.225 57.887v-7.244l7.257-4.189v7.243z" fill="#f2b60a"/><path d="M38.137 67.425l.005-9.372 8.7-5.021v9.37z" fill="#dd4919"/><path d="M38.137 78.871v-9.385l8.7-5.021v9.383z" fill="#95d8e9"/><path d="M26.715 85.468V51.414l-16.179 9.341v34.056z" fill="#184f78"/><path d="M16.708 58.537l-3.324 7.533 6.645-3.835z" fill="#95d8e9"/><path d="M20.031 62.235l-3.324-3.7v5.616z" fill="#fff"/><path d="M16.708 65.662l3.321-3.428-6.645 3.837z" fill="#f1484f"/><path d="M13.384 66.075l3.324-.409v-1.51z" fill="#f2b60a"/><path d="M16.708 68.453l3.324.6-6.648 3.834z" fill="#95d8e9"/><path d="M13.384 72.887l3.324-4.434v2.519z" fill="#fff"/><path d="M16.708 72.476l-3.324.408 6.645-3.834z" fill="#f1484f"/><path d="M20.031 69.05l-3.324 3.426V70.97z" fill="#f2b60a"/><path d="M16.708 76.195l-3.324 5.677 6.645-3.842z" fill="#f1484f"/><path d="M20.031 78.03l-3.324-1.835v3.758z" fill="#fff"/><path d="M16.708 81.461l3.321-3.431-6.645 3.842z" fill="#95d8e9"/><path d="M13.384 81.871l3.324-.411v-1.507z" fill="#f2b60a"/><path d="M16.708 84.562l3.324.594-6.648 3.839z" fill="#f1484f"/><path d="M13.384 88.995l3.324-4.433v2.517z" fill="#fff"/><path d="M16.708 89.82l-3.324-.83 6.645-3.837z" fill="#95d8e9"/><path d="M20.031 85.153l-3.323 4.667v-2.744z" fill="#f2b60a"/><path d="M22.799 60.377v-3.59l1.707-.988v3.588zm-.033 8.384v-3.59l1.71-.99v3.592zm0 8.359v-3.585l1.71-.985v3.588zm.033 8.348V81.88l1.707-.99v3.59zm36.38-27.804a3.341 3.341 0 011.146 2.8c0 3.2-2.591 7.294-5.8 9.145s-5.8.752-5.8-2.452l5.8-3.343z" fill="#27aae1"/><path d="M53.957 58.497v4.9a.322.322 0 01-.154.244l-4.893 2.824c-.085.051-.152.022-.152-.065 0-2.77 2.24-6.314 5-7.932l.045-.034c.085-.054.154-.025.154.063z" fill="#dd4919"/><path d="M54.688 59.615v.406l2 .031.31-.4zm0 1.693v.4l.717.011.308-.4zm0 .85v.4h.07l.306-.4zm0-1.693v.4l1.36.022.311-.4zm1.08-2.975l2.645.04a3.266 3.266 0 00-2.645-.04zm-.983.424c-.029.018-.065.034-.1.051v.351l3.294.051.311-.4zm-.097.848v.406l2.65.044.309-.4z" fill="#ff5f29"/><path d="M73.379 52.989l-5.8 3.345v-5.8c-3.2 1.848-5.8 5.943-5.8 9.147s2.593 4.294 5.8 2.446 5.8-5.938 5.8-9.138z" fill="#f2b60a"/><path d="M73.378 52.989c0-3.2-2.6-4.3-5.8-2.452v5.8z" fill="#95d8e9"/><path d="M73.377 38.149L52.265 50.335v-.468l21.112-12.186z" fill="#fd6220"/><path d="M51.688 52.232l-2.687 1.549v-2.02l2.687-1.553z" fill="#27aae1"/><path d="M73.378 40.688L49.001 54.76v-.463l24.377-14.072zm0 2.541L49.001 57.301v-.465l24.377-14.072zm0 2.537L49.001 59.842v-.468l24.377-14.072z" fill="#71a9e6"/><g style="isolation:isolate"><path d="M95.341 76.656l.041 39.51 11.475 6.669-.04-39.508z" fill="#a02b13"/><path d="M106.817 83.327l.044 39.508 11.552-6.669-.044-39.51z" fill="#bc2e08"/></g><g style="isolation:isolate"><path d="M78.964 94.252l.044 31.371 11.477 6.673-.044-31.373z" fill="#f99b1d"/><path d="M90.441 100.923l.044 31.371 11.551-6.671-.043-31.367z" fill="#fdc00f"/></g><g style="isolation:isolate"><path d="M62.587 111.858l.044 23.219 11.475 6.673-.041-23.223z" fill="#149393"/><path d="M74.064 118.522l.041 23.223 11.55-6.669-.041-23.218z" fill="#09a6ad"/></g><g style="isolation:isolate"><path d="M46.211 129.447l.043 15.086 11.476 6.669-.046-15.086z" fill="#1b5e92"/><path d="M57.687 136.116l.044 15.085 11.551-6.669-.043-15.086z" fill="#2777ad"/></g><g style="isolation:isolate"><path d="M29.832 147.041l.044 6.944 11.475 6.669-.042-6.94z" fill="#b3d7e5"/><path d="M41.309 153.719l.042 6.94 11.554-6.669-.044-6.944z" fill="#d1e9f5"/><path d="M29.832 147.04l11.477 6.673 11.552-6.673-11.476-6.668z" fill="#dcdcdc"/></g><path d="M95.342 76.655l11.476 6.671 11.552-6.671-11.478-6.666zM78.964 94.252l11.477 6.669 11.552-6.669-11.477-6.669zm-16.377 17.6l11.477 6.669 11.55-6.669-11.472-6.671zm-16.376 17.595l11.473 6.669 11.551-6.669-11.474-6.669z" fill="#dcdcdc"/><path d="M95.342 76.655l11.476 6.671 11.552-6.671-11.478-6.666z" fill="#ff3912"/><path d="M78.964 94.252l11.477 6.669 11.552-6.669-11.477-6.669z" fill="#ffd366"/><path d="M62.587 111.852l11.477 6.669 11.55-6.669-11.472-6.671z" fill="#16c5d5"/><path d="M46.211 129.447l11.473 6.669 11.551-6.669-11.474-6.669z" fill="#3c91bf"/><path d="M29.832 147.04l11.477 6.673 11.552-6.673-11.476-6.668z" fill="#fff"/><path d="M92.929 71.106l11.476 6.671v8.334l-11.476-6.669zM76.553 88.702l11.475 6.669v8.338L76.553 97.04z" fill="#0c2538"/><path d="M76.553 88.703l11.475 6.669 16.377-9.26-11.476-6.67z" fill="#163551"/><path d="M80.269 65.034l-13.7 12.257 5.171 2.872c-17.75 23.3-41.768 44.155-66 59l.79.463c24.763-14.186 50.89-33.147 70.007-56.256l6.278 3.985z" fill="#ff3912"/><path d="M60.175 106.301l11.475 6.667v8.71l-11.475-6.669z" fill="#0c2538"/><path d="M60.175 106.301l11.475 6.664 16.378-9.256-11.474-6.669z" fill="#163551"/><path d="M44.602 123.897l11.476 6.669v8.268l-11.476-6.668z" fill="#0c2538"/><path d="M44.602 123.896l11.476 6.669 15.572-8.889-11.475-6.668zm-16.619 17.966l11.476 6.669 16.62-9.7-11.476-6.666z" fill="#163551"/><g transform="translate(36.282 100.922)"><circle cx="1.227" cy="1.227" r="1.227" transform="translate(22.9 12.753)" fill="#ffd997"/><path d="M5.124 22.376a34.19 34.19 0 002.842-1.915v.376a36.74 36.74 0 01-2.839 1.92zm-.325 1.22a.741.741 0 00.324-.512v.04a.907.907 0 01-.412.712l-.508.293c-.228.132-.412.027-.414-.235v-.037c.025.166.163.23.327.134z" fill="#cc330a"/><path d="M5.126 22.757c.976-.6 1.944-1.246 2.839-1.92l.011 3.475a.733.733 0 01-.333.577l-6.355 3.665c-.181.105-.331.022-.333-.186l-.009-3.479a25.965 25.965 0 002.842-1.365v.369c0 .262.186.367.414.235l.508-.293a.907.907 0 00.412-.712v-.096zm-3.712 5.562a.419.419 0 00.054-.04.455.455 0 01-.215-.011.409.409 0 01-.119-.177c-.034.228.107.324.282.228zm6.1-3.526a.607.607 0 00.28-.55 1.534 1.534 0 01-.121.313 1.639 1.639 0 01-.213.264l.054-.027z" fill="#ff5f29"/><path d="M5.124 22.276v.807a.741.741 0 01-.324.512l-.682.392c-.163.1-.3.031-.327-.134v-.805z" fill="#fdc00f"/><path d="M.946 24.893v-.376a26.493 26.493 0 002.842-1.365v.376a25.963 25.963 0 01-2.842 1.365z" fill="#cc330a"/><path d="M7.625 19.012c.186-.105.336-.018.336.192v1.257a34.192 34.192 0 01-2.837 1.919v-.1l-1.338.774v.1a26.492 26.492 0 01-2.842 1.365v-1.26a.733.733 0 01.331-.573z" fill="#ff5f29"/><path d="M.005 23.693v.874l.709.708.227-.14.005-.9z" fill="#cc330a"/><path d="M6.923 18.443a.233.233 0 00-.237.022L.334 22.13a.747.747 0 00-.333.577v1.259l.94.546v-1.26a.733.733 0 01.331-.573l6.352-3.67a.237.237 0 01.239-.022c-.314-.182-.627-.361-.94-.544zM.956 28.368l-.009-3.479-.94-.546.009 3.473a.234.234 0 00.1.215c.188.114.376.219.564.333.094.051.19.107.284.161l.094.056a.231.231 0 01-.102-.213z" fill="#ce4d21"/><path d="M7.797 24.243a.607.607 0 01-.28.55l-.054.027a1.64 1.64 0 00.213-.264 1.534 1.534 0 00.121-.313zm-6.663 3.849a.409.409 0 00.121.177.455.455 0 00.215.011.42.42 0 01-.054.04c-.177.096-.318 0-.282-.228z" fill="#fdc00f"/><g style="isolation:isolate"><path d="M2.986 21.323l-.28-.157v-.411l.282.166zm-.002-.407l-.282-.166.277-.162.282.166z" fill="#fdc00f"/><path d="M3.262 20.754v.406l-.277.162v-.407z" fill="#eeb50e"/></g><g style="isolation:isolate"><path d="M5.001 20.16l-.283-.166v-.406l.283.162z" fill="#fdc00f"/><path d="M5 19.75l-.283-.162.28-.162.282.162z" fill="#fdc00f"/><path d="M5.276 19.588v.406l-.277.166v-.411z" fill="#eeb50e"/></g><g style="isolation:isolate"><path d="M5.118 19.684l-.283-.166v-.166l.282.162zm-.155.088l-.282-.166.154-.087.283.166z" fill="#ce4d21"/><path d="M4.963 19.772l-.282-.166v-.167l.282.166z" fill="#cc330a"/><path d="M4.963 19.772l-.282-.166v-.167l.282.166zm-.259-.738l.282.166a.35.35 0 01.127.317l-.282-.161a.353.353 0 00-.127-.322z" fill="#ce4d21"/><path d="M4.594 19.213l.282.166a.25.25 0 01.087.226l-.282-.166a.259.259 0 00-.087-.226z" fill="#ce4d21"/><path d="M3.462 20.143l-.282-.166 1.332-.769.283.166z" fill="#ce4d21"/><path d="M3.462 19.976l-.282-.162 1.332-.769.282.162z" fill="#cc330a"/><path d="M4.595 19.208l.282.166a.086.086 0 00-.081 0l-.282-.166a.086.086 0 01.081 0z" fill="#ce4d21"/><path d="M4.708 19.033l.282.166a.174.174 0 00-.19.009l-.282-.163a.179.179 0 01.19-.012z" fill="#cc330a"/><path d="M4.831 18.801l.282.161a.31.31 0 00-.318.031l-.284-.166a.312.312 0 01.32-.026zm-1.688 2.02l-.282-.162.155-.092.282.166z" fill="#ce4d21"/><path d="M3.143 20.823l-.282-.162v-.166l.283.166z" fill="#cc330a"/><path d="M3.299 20.562l-.282-.166a.542.542 0 01.166-.418l.28.166a.542.542 0 00-.164.418zm-.334.362l-.283-.166v-.171l.283.166z" fill="#ce4d21"/><path d="M3.142 20.658l-.282-.166a.846.846 0 01.322-.678l.28.163a.853.853 0 00-.32.681z" fill="#cc330a"/><path d="M4.795 18.993c.28-.166.5.018.5.416v.17l-.016.009-.277.161-.038.022v-.172c0-.181-.09-.271-.168-.226l-1.334.77a.542.542 0 00-.163.418.542.542 0 01.163-.418l1.334-.77c.078-.045.166.045.168.226v.172l.154-.087v-.172c0-.266-.148-.4-.322-.3l-1.334.77a.853.853 0 00-.32.68v.161l.157-.087-.038.022-.277.161-.018.009v-.17a1.216 1.216 0 01.5-1z" fill="#ce4d21"/><path d="M4.796 19.208c.175-.1.318.038.322.3v.172l-.154.087v-.172c0-.181-.09-.271-.168-.226l-1.334.77a.542.542 0 00-.163.418v.17l-.157.087v-.161a.853.853 0 01.32-.68z" fill="#ff5f29"/><path d="M3.461 19.758l-.281-.162 1.332-.769.283.166z" fill="#ce4d21"/><path d="M2.965 20.754l-.284-.166a1.221 1.221 0 01.5-.991l.282.161a1.216 1.216 0 00-.498.996z" fill="#ce4d21"/></g><path d="M5.216 19.172a1.227 1.227 0 11-1.228-1.228 1.229 1.229 0 011.228 1.228z" fill="#ffd997"/><path d="M5.428 17.95c-.362.935-.64 1.087-1.5.893-.866-.2-.929-.732-.734-1.6l1.562-5.18 3.172-4.179a3.945 3.945 0 011.414 3.182l-2.343 2.741z" fill="#2777ad"/><path d="M5.308 35.998s-.268 1.354.119 1.633c.494.362 1.685.376 3.047-.418s1.506-1.2 1.537-1.394-1.127-1.124-4.703.179zm13.362-10.09s-.271 1.349.121 1.629c.492.362 1.685.38 3.047-.423s1.506-1.193 1.535-1.389-1.127-1.124-4.703.183z" fill="#1b5e92"/><path d="M8.431 36.394c-.134.989-1.045 1.307-2.032 1.177-.989-.137-1.678-.678-1.544-1.665l3.137-18.252c3.616.49 3.3 3.072 3.3 3.072z" fill="#2777ad"/><path d="M6.399 37.571a1.823 1.823 0 001.349-.367c-.6.192-1.358-.166-1.161-.765L9.346 22.9c-2.41-.964-1.354-4.92-1.354-4.92l-.056-.036-3.081 17.963c-.134.986.555 1.528 1.544 1.664z" fill="#3c91bf"/><path d="M19.625 16.817c-1.3-.065-4.788 1.311-4.788 1.311l-.034-2.293v-.11l.051-5.909-.154-1.3s-1.188-.434-2.656-.967-3.285-.425-3.654.486a4.965 4.965 0 00-.354 1.725c0 .04.734 5.992.734 6.03l-.783 2.877c.025 1.615.025 1.615 1.188 2.018 1.83.638 1.477 2.728 4.28 2.177a30.433 30.433 0 004.406-1.924v5.079c-.06.991.7 1.477 1.694 1.533s1.848-.327 1.9-1.325l.119-6.751a3.909 3.909 0 00-.387-1.815 1.893 1.893 0 00-1.562-.842z" fill="#3c91bf"/><path d="M7.612 19.828a24.314 24.314 0 003.922 2.378c1.5.463 4.632-1.517 4.486-2.222-.072-.354-.9-1.62-.987-1.944v-5.524l-.327-4.005s-4.573-2.638-6.323-1.123c-.656.564-1.058.606-.329 8.281a39.235 39.235 0 01-.442 4.159z" fill="#2777ad"/><path d="M11.534 22.206a24.314 24.314 0 01-3.922-2.378l-.054.32a22.512 22.512 0 003.9 2.271c2.314.651 4.708-1.7 4.562-2.4v-.031c.146.701-2.989 2.682-4.486 2.218z" fill="#1b5e92"/><path d="M9.552 7.32s.043 1.284 1.745 1.15c0 0 .886.056 1.094-.568V6.23l-2.839-.765z" fill="#ffd997"/><path d="M8.959 4.044c.076 1.985.081 3.6 2.94 3.6 2.065 0 2.9-1.061 3.251-3.023.5-2.788-1.3-4.218-3.363-4.186S8.831.75 8.959 4.044z" fill="#ffd997"/><path d="M12.593 4.727c.665-.6 1.164.432 1.164.432l.4-.465s1.445-3.282 1.016-3.634C12.367-1.229 9.161.903 9.161.903a4.336 4.336 0 00-.817 3.184c.067 1.707.539 3.1 2.484 3.47a3.836 3.836 0 001.356.038l.792-1.226a1.319 1.319 0 01-.383-1.642z" fill="#082537"/><path d="M14.847 11.171l-2.15-.651 2.136 7.975z" fill="#1b5e92"/><path d="M22.865 12.886c.969.246 1.338.188 1.251 1.072-.087.879-.423 1.329-1.3 1.237l-5.341-.909-6.6-4.779a3.53 3.53 0 013.833-1l3.846 3.343zm-3.304 14.659a1.693 1.693 0 00.83-.17 1.066 1.066 0 01-1.2-1l-.063-4.759-1.257-.673v5.075c-.065.986.694 1.471 1.69 1.527z" fill="#2777ad"/><path d="M12.519 7.779c-2.488.141-3.018-.62-3.018-.62l-.148.311a1.2 1.2 0 001 1.009 2.744 2.744 0 002.795-.725c-.023-.005-.143 0-.629.025z" fill="#fff"/></g><path d="M116.863 69.919l.345.317 4.458-2.875-3.418-2.483z" fill="#0c2538"/><g style="isolation:isolate"><path d="M137.315 47.997l6.5-3.777a2.7 2.7 0 012.714.282l-6.493 3.779a2.716 2.716 0 00-2.721-.284zm2.722.286l6.494-3.78.739.428-6.499 3.777zm39.646-5.367l6.5-3.776-.1 34.55-6.5 3.778z" fill="#ffc19c"/><path d="M179.586 77.468l-2.634-32.992a10.594 10.594 0 01-.43-.953c-2.009-5.8-22.7-13.136-22.7-13.136l-12.861-.445c-.669.392-12.644 5.451-12.644 5.451l11.721 24.029a151.425 151.425 0 0119.281 10.382c.192.13.4.255.62.38 4.318 2.493 13.072 5.444 20.238 7.619z" fill="#f5b285"/><g style="isolation:isolate"><path d="M151.447 62.949l-3.889 1.676-1.141-.7-5.16-3.135a2.289 2.289 0 00-2.3-.235l-3.7 2.15a2.263 2.263 0 012.293.239l6.822 4.133a6.9 6.9 0 013.182 5.421 2.161 2.161 0 01-.9 1.973l7.071-4.135a2.151 2.151 0 00.9-1.973 6.912 6.912 0 00-3.178-5.414z" fill="#f5b285"/><path d="M144.377 67.081a6.9 6.9 0 013.182 5.421c0 1.973-1.43 2.761-3.2 1.734l-6.82-4.137a6.911 6.911 0 01-3.186-5.421c0-1.973 1.428-2.757 3.2-1.73z" fill="#ffc19c"/></g><g style="isolation:isolate"><path d="M147.54 54.882l-10.72-6.2c-1.07-.611.315.477-.367.875l-4.33 2.517a2.692 2.692 0 012.7.275l8.386 5.052a8.061 8.061 0 013.728 6.343 2.532 2.532 0 01-1.058 2.311l4.332-2.519a2.542 2.542 0 001.061-2.311 8.1 8.1 0 00-3.732-6.343z" fill="#f5b285"/><path d="M143.211 57.403a8.061 8.061 0 013.728 6.343c-.009 2.311-1.678 3.229-3.755 2.032l-8.386-5.045a8.088 8.088 0 01-3.728-6.348c0-2.316 1.674-3.226 3.755-2.034z" fill="#ffc19c"/></g><g style="isolation:isolate"><path d="M145.816 43.035l-8.391-5.046a2.69 2.69 0 00-2.7-.277l-4.332 2.517a2.694 2.694 0 012.7.275l8.386 5.052a8.071 8.071 0 013.732 6.346 2.544 2.544 0 01-1.056 2.307l4.33-2.517a2.512 2.512 0 001.061-2.312 8.083 8.083 0 00-3.73-6.345z" fill="#f5b285"/><path d="M141.354 47.286a8.074 8.074 0 013.727 6.348c0 2.309-1.674 3.229-3.755 2.036l-8.381-5.046a8.093 8.093 0 01-3.732-6.355c.013-2.314 1.674-3.229 3.75-2.032z" fill="#ffc19c"/></g><path d="M127.573 42.048c-1.486 1.891-2.376 5.157-1.376 7.245a2.362 2.362 0 00.9 1.014 3.534 3.534 0 002.8-1.6l3.157-4.735c2.079-1.2 5.426-5.251 5.413-7.569s-5.321-.644-7.4.557z" fill="#f5b285"/></g><path d="M177.882 39.461l-24.061-9.075s-2.439 7.766-1.119 8.541c9.465 5.576-1.358 7.077-4.1 5.5-5.345-3.086-12.315 18.618 29.83 18.618l1.25-20.129c-.161-.331-1.689-3.15-1.8-3.455z" fill="#ffc19c"/><path d="M141.44 29.564a8.736 8.736 0 00-4.873.826l-6.5 3.164a11.411 11.411 0 00-3.8 3.329l-3.1 4.672c-1.486 1.891-1.557 3.222-.678 5.361a4.432 4.432 0 001.622 1.79l2.992 1.6c-.358-.3-.383-.374-.624-.958a8.112 8.112 0 011.1-7.3l3.5-5.088 9.339-4.368-1.278-1.694 2.448 1.821 2.587-1.821-1.047 2.591 9.321 5.086s3.273-3.247 6.305-6.283c-2.871-1.177-3.631-1.64-4.925-1.906-3.045-.627-12.389-.822-12.389-.822z" fill="#ffc19c"/><path d="M151.84 23.683l-29.839 43.343a1.349 1.349 0 01-.445.407 2.4 2.4 0 01-2.884-.761 1.787 1.787 0 01-.248-2.141l29.836-43.343a1.786 1.786 0 00.255 2.141 2.391 2.391 0 002.88.763 1.335 1.335 0 00.445-.409z" fill="#0c2538"/><path d="M152.926 46.769a8.1 8.1 0 013.725 6.348c0 2.311-1.671 3.233-3.748 2.036l-14.359-7.798c-2.076-1.2-6.652-3.365-6.639-5.674 0-1.085 3.282-2.544 3.884-2.938a2.626 2.626 0 012.772.23z" fill="#ffc19c"/><path d="M149.57 48.916a8.109 8.109 0 013.723 6.348c0 2.314-1.669 3.233-3.75 2.036l-14.36-7.8a8.088 8.088 0 01-3.728-6.356c.009-2.311 1.678-3.224 3.75-2.027z" fill="#ffc19c"/><path d="M134.504 42.958c-1.237-.712-2.246-.148-2.255 1.282a4.93 4.93 0 002.238 3.875l1.293.765c0-.206 1.02.356 1.023-1.956a5.077 5.077 0 00-1.009-3.2z" fill="#ffdfcf"/><path d="M151.588 21.541a1.645 1.645 0 01-.2 2.551 2.391 2.391 0 01-2.88-.763 1.645 1.645 0 01.192-2.551 2.4 2.4 0 012.888.763z" fill="#163551"/><g style="isolation:isolate"><path d="M184.621 38.471c-3.1-1.19-7.46-.535-12.329 2.242-9.666 5.514-17.671 17.323-17.889 26.365-.1 4.5 1.73 7.462 4.788 8.635l21.962 11.745c-3.059-1.17-4.9-4.135-4.79-8.626.215-9.051 8.221-20.86 17.887-26.373 4.869-2.777 9.225-3.423 12.333-2.24z" fill="#fff"/><path d="M194.248 52.453c-9.666 5.516-17.672 17.326-17.883 26.377s7.439 11.894 17.1 6.379 17.69-17.314 17.909-26.36-7.455-11.913-17.126-6.396z" fill="#cceaf2"/></g><path d="M92.929 71.105l11.476 6.671 5.644-3.249-7.553-5.265 10.642 3.487-7.174-6.068 11.37 3.651-13.858-5.3 5.994 5.664-10.332-3.164 6.311 5.23-8.559-4.034z" fill="#163551"/><path d="M131.213 116.156l16.777 9.688-13.329 7.744-16.781-9.688z" fill="#fff"/><path d="M109.29 92.467l.886.519a3.465 3.465 0 003.484-.34 8.824 8.824 0 002.338-2.041c.043-.049.083-.1.125-.152a11.83 11.83 0 001.749-3.024 1.242 1.242 0 00.045-.116 8.789 8.789 0 00.62-3.117 4.164 4.164 0 00-.633-2.39c-.161-.1-.022-.016 0 0-.018-.027-.031-.049-.047-.069a2.52 2.52 0 00-.477-.5c-.3-.17-.591-.342-.888-.515a2.634 2.634 0 01.477.494c.018.025.036.047.049.069l.034.018.031.022c-.022-.016-.045-.027-.065-.04a4.188 4.188 0 01.633 2.392 8.719 8.719 0 01-.62 3.115c-.013.04-.027.078-.045.119a11.84 11.84 0 01-1.749 3.03c-.045.051-.083.1-.128.154a8.785 8.785 0 01-2.337 2.037 3.437 3.437 0 01-3.482.335z" fill="#cc330a"/><path d="M113.348 92.426a10.773 10.773 0 004.882-8.451c-.009-3.1-2.213-4.359-4.914-2.8a10.776 10.776 0 00-4.878 8.451c.01 3.102 2.214 4.355 4.91 2.8z" fill="#fff"/><g style="isolation:isolate"><path d="M113.737 86.365a.381.381 0 01.031.168.688.688 0 01-.031.206l3.522-2.034v-.368z" fill="#dd4919"/><path d="M111.643 86.223l-.271.676 1.53.181v-.047a.94.94 0 01.271-.622z" fill="#95d8e9"/><path d="M113.375 81.403a.71.71 0 00-.324.559c0 .206.15.289.329.183a.727.727 0 00.322-.559c0-.205-.15-.288-.327-.183z" fill="#dd4919"/><path d="M111.229 92.085a.487.487 0 00-.2.248c-.06.159-.027.3.083.309a.2.2 0 00.119-.029.516.516 0 00.192-.246c.069-.17.025-.3-.085-.313a.2.2 0 00-.109.031z" fill="#95d8e9"/><path d="M113.17 86.411a.94.94 0 00-.271.622v.05c.022.239.21.329.436.2a.943.943 0 00.4-.539.688.688 0 00.031-.206.381.381 0 00-.031-.168l-.237-.139a.46.46 0 00-.17.06.768.768 0 00-.158.12zm.161.548c-.087.047-.152.009-.152-.09a.331.331 0 01.152-.264c.083-.049.154-.011.154.087a.346.346 0 01-.154.266z" fill="#3475b9"/><path d="M115.572 89.575c.078-.043.157-.043.2.018a.388.388 0 01-.083.412.512.512 0 01-.114.1.146.146 0 01-.2-.018.4.4 0 01.083-.412.633.633 0 01.114-.1zm1.586-2.745a.483.483 0 00-.2.246c-.065.163-.027.3.083.316a.192.192 0 00.119-.036.49.49 0 00.2-.244c.06-.163.027-.3-.083-.311a.2.2 0 00-.119.029z" fill="#95d8e9"/><path d="M117.735 83.889a.71.71 0 00-.324.559c0 .206.145.289.324.186a.712.712 0 00.327-.562c.001-.205-.148-.285-.327-.183z" fill="#dd4919"/><path d="M117.145 81.838a.566.566 0 00-.114.1.389.389 0 00-.083.409.145.145 0 00.2.016.511.511 0 00.114-.1.392.392 0 00.083-.409.148.148 0 00-.2-.016zm-7.51 9.337a.527.527 0 00-.116.1.38.38 0 00-.081.407c.04.063.119.065.2.022a.528.528 0 00.116-.1.4.4 0 00.083-.412c-.051-.06-.125-.06-.202-.017zm5.915-10.248a.508.508 0 00-.2.246c-.063.166-.022.3.087.311a.2.2 0 00.112-.031.5.5 0 00.2-.246c.063-.161.022-.3-.087-.309a.193.193 0 00-.112.029z" fill="#95d8e9"/><path d="M109.043 88.908a.711.711 0 00-.322.559c0 .2.148.289.327.188a.725.725 0 00.322-.559c-.002-.208-.148-.293-.327-.188zm4.288 2.651a.7.7 0 00-.322.559c0 .206.143.289.327.183a.713.713 0 00.32-.559c.004-.205-.142-.288-.325-.183z" fill="#dd4919"/><path d="M109.621 86.183a.48.48 0 00-.2.244c-.063.163-.027.307.081.315a.2.2 0 00.119-.034.511.511 0 00.2-.248c.06-.157.022-.3-.087-.311a.214.214 0 00-.113.034zm1.583-2.748a.526.526 0 00-.119.1.4.4 0 00-.083.412.15.15 0 00.2.018.473.473 0 00.114-.1.388.388 0 00.083-.412c-.04-.061-.114-.061-.195-.018z" fill="#95d8e9"/><path d="M113.335 86.606a.331.331 0 00-.152.264c0 .1.065.136.152.09a.346.346 0 00.154-.266c.001-.099-.071-.137-.154-.088z" fill="#fff"/></g><path d="M112.738 80.193a3.872 3.872 0 013.907-.38l.309.181.092.051c.145.087.293.172.443.257l.043.027a3.867 3.867 0 00-3.907.38 12.092 12.092 0 00-5.477 9.486 3.846 3.846 0 001.6 3.52c-.3-.17-.588-.342-.886-.515a3.85 3.85 0 01-1.607-3.52 12.092 12.092 0 015.483-9.487z" fill="#cc330a"/><path d="M108.146 90.195c.011 3.479 2.484 4.887 5.513 3.139a12.08 12.08 0 005.48-9.482c-.009-3.484-2.481-4.893-5.511-3.141a12.092 12.092 0 00-5.482 9.484zm5.513 2.452c-2.7 1.56-4.9.3-4.914-2.8a10.771 10.771 0 014.878-8.453c2.7-1.557 4.9-.3 4.911 2.8a10.766 10.766 0 01-4.876 8.451z" fill="#ff5f29"/></g></svg>