<svg xmlns="http://www.w3.org/2000/svg" width="300" height="234.142"><path d="M17.038 201.531a1.622 1.622 0 01-.2-3.23l281.336-35.853a1.621 1.621 0 01.41 3.216L17.245 201.518a1.779 1.779 0 01-.207.013z" fill="#3a5b73"/><path d="M111.112 152.729c-3.822-4.239-19.286-12.214-19.286-12.214a3.839 3.839 0 00-4-.349c-1.4.746-2.359 2.433.1 6.24 1.2 1.863 6.652 5.878 6.652 5.878l-15.206 6.4s-.439.025-1.2.081c-6.7-.457-21.123.463-26.513 2.768a4.817 4.817 0 00-1.818 1.33 3.177 3.177 0 002.888 5.175c1.644-.23 3.322-.466 4.119-.588a2.7 2.7 0 00.545-.007c9.435-1.139 45.445 1.866 45.445 1.866l1.528 1.2a73.908 73.908 0 019.513-13.225 23.25 23.25 0 00-2.767-4.555z" fill="#fff"/><path d="M258.586 205.811c-.105-18.105-1.862-53.168-3.164-72.223-1.305-19.085-13.042-34.011-13.042-34.011l-1.361-8.9s-1.483-.044-3.918.153c-5.927.483-17.508 2.4-27.132 9.913a38.043 38.043 0 00-7.2 7.366c-.548.739-1.078 1.474-1.6 2.206-5.51 3.014-16.586 9.3-19.241 12.568-7.667 9.422-18.466 33.782-24.393 45.988-.372.767-2.437-.094-2.907.431a28.557 28.557 0 00-1.868 3.153l-36.853-17.4c-.7.744-1.377 1.486-2.034 2.228a73.908 73.908 0 00-9.513 13.225 54.466 54.466 0 00-3.141 6.682s52.183 38.669 61.9 36.738c6.295-1.251 12.871-6.846 18.132-12.513a62.85 62.85 0 012.153 9.817c.165 1.988 2.568 21.287 2.568 21.287h72.061s.586-21.008.553-26.708z" fill="#fbd5c7"/><path d="M281.82 232.519s-.036-15.24.267-30.41c.323-16.174 2.909-37.079-2.579-42.817-8.333-8.714-31.989-4.7-38.965 8.029-6.839 12.479-9.212 41.048-9.331 65.2z" fill="#e6e6e6"/><path d="M227.329 68.392a17.832 17.832 0 005.614-5.095c1.031-1.5 3.546-5.8 2.432-8.933a7.093 7.093 0 00-5.39-4.347c-2.026-.384-3.923.746-5.188 1.766-7.243-1.426-21.252-7.463-28.5-24.428-4.063 3.765-9.015 9.076-12.889 11.209.021 2.712.659 6.451.77 9.873a18.23 18.23 0 01-.306 4.445c-.767 3.432-4.371 7.96-6.407 10.669-1.266 1.685 5.1 6.708 5.1 6.708s3.4 15.84 8.469 20.322c3.733 3.3 16.208.6 16.208.6l2.324 6.323a6.754 6.754 0 01.407 3.24c9.625-7.509 21.205-9.43 27.132-9.913l-2.213-6.919c-4.791-.023-6.798-7.703-7.563-15.52z" fill="#fff"/><path d="M269.892 85.568c-.383-1.37-2.834-9.637-10.6-13.548a22.337 22.337 0 00-5.533-1.885 83.375 83.375 0 008.1-17.539c6.364-19.562-6.913-45.935-27.63-45.723-27.761-18.625-67.45 17.277-52.136 38.762q1 1.407 2.08 2.8c-.111-3.423-.749-7.161-.77-9.873 3.874-2.132 8.826-7.444 12.889-11.209 7.25 16.965 21.259 23 28.5 24.428 1.265-1.02 3.162-2.15 5.188-1.766a7.093 7.093 0 015.39 4.347c1.114 3.137-1.4 7.432-2.432 8.933a17.832 17.832 0 01-5.614 5.095c.766 7.818 2.772 15.5 7.559 15.522 5.431.182 10.2-2.965 14.2-7.458a25.532 25.532 0 013.419 7.648c2.261 9.045-1.461 17.6-4.708 25.835-1.479 3.754-2.641 7.777-2.158 11.783a12.533 12.533 0 007.379 9.864c.142.067-.973-7.576 1.681-13.179 2.661-5.621 8.893-8.383 12.093-13.6 3.44-5.593 4.883-12.868 3.103-19.237z" fill="#a7b4bd"/><g fill="#3a5b73"><path d="M192.963 48.52c-1.32.029-2.358 1.521-2.317 3.333s1.144 3.259 2.465 3.23 2.358-1.52 2.317-3.333-1.146-3.259-2.465-3.23zm5.447-6.528a7.335 7.335 0 00-7.294-.749 1.623 1.623 0 101.3 2.974 4.079 4.079 0 013.993.321 1.621 1.621 0 002.005-2.547zm-10.97 80.037a1.622 1.622 0 00-.38 3.222c7.168.845 10.955 5.76 12.87 9.735 5.468 11.354 3.5 29.721-4.57 42.724a1.621 1.621 0 102.755 1.71c8.61-13.865 10.646-33.572 4.736-45.842-3.251-6.75-8.58-10.743-15.411-11.549z"/><path d="M280.679 158.172c-3.933-4.11-11.15-5.924-19.312-4.847-1 .131-2.044.314-3.1.547-.417-7.723-.848-14.833-1.228-20.395a58.3 58.3 0 00-1.926-11.244 15.245 15.245 0 011.051-3.133c1.3-2.734 3.581-4.765 6-6.917a30.051 30.051 0 006.009-6.526 26.47 26.47 0 003.279-20.523c-.672-2.4-3.482-10.555-11.427-14.559a23.762 23.762 0 00-3.793-1.494 89.01 89.01 0 007.17-15.981c3.68-11.311 1.221-25.206-6.263-35.4-5.844-7.961-13.788-12.364-22.421-12.445-16.664-10.836-36.35-3.341-47.675 8.308-10.445 10.747-12.907 23.705-6.27 33.017a87.808 87.808 0 001.791 2.414 15.636 15.636 0 01-.279 3.536c-.623 2.789-3.587 6.7-5.55 9.292l-.571.757c-1.426 1.9.235 4.787 4.936 8.591.682 2.972 3.96 16.3 8.854 20.626 3.553 3.143 12.629 1.9 16.236 1.245l1.848 5.026a.815.815 0 00.03.077 4.6 4.6 0 01.321 1.767 39.93 39.93 0 00-6.93 7.237q-.712.962-1.393 1.916c-5.764 3.151-16.582 9.332-19.4 12.8-6.4 7.867-14.805 25.651-20.943 38.636a843.889 843.889 0 01-3.364 7.074l-.258-.022a2.978 2.978 0 00-2.687.674 14.673 14.673 0 00-1.346 2.112l-35.462-16.746a1.619 1.619 0 00-1.871.351c-.171.182-.335.364-.5.544a16.882 16.882 0 00-1.911-2.846c-3.857-4.279-18.223-11.78-19.654-12.521a5.479 5.479 0 00-5.6-.387 4.106 4.106 0 00-2.134 2.616c-.424 1.635.111 3.576 1.635 5.934a26.5 26.5 0 004.812 4.586l-12.378 5.208c-.2.012-.489.033-.852.059-6.311-.407-21.222.377-27.127 2.9a6.469 6.469 0 00-2.418 1.774 4.8 4.8 0 003.672 7.876 4.978 4.978 0 00.679-.046c2.18-.306 3.339-.472 3.978-.569a4.231 4.231 0 00.656-.023c8.575-1.035 40.315 1.483 44.632 1.833l.077.06a54.857 54.857 0 00-2.582 5.663 1.621 1.621 0 00.547 1.889c.13.1 13.243 9.8 27.377 19.143 24.362 16.1 31.867 18.007 34.64 18.007a5.392 5.392 0 001.166-.126c5.9-1.173 11.931-5.815 17-10.9a45.385 45.385 0 011.352 6.75c.167 2 2.478 20.563 2.577 21.353a1.623 1.623 0 001.606 1.422 1.709 1.709 0 00.2-.014 1.621 1.621 0 001.408-1.808c-.025-.193-2.4-19.29-2.562-21.222a59.4 59.4 0 00-1.964-9.232 109.721 109.721 0 0010.063-12.925 1.622 1.622 0 00-2.723-1.762c-.146.226-14.77 22.61-27.594 25.16-6.467 1.27-39.541-20.909-59.615-35.706a68.1 68.1 0 0113.094-19.6l34.173 16.137-.517.876a1.622 1.622 0 002.791 1.651l1.423-2.407c.008-.012.011-.027.019-.04l.025-.038a41.626 41.626 0 011.37-2.447l.235.021c.871.079 2.491.226 3.18-1.2a843.69 843.69 0 003.666-7.7c6.066-12.836 14.375-30.416 20.526-37.976 2.757-3.389 16.729-11.142 21.879-13.844a1.62 1.62 0 00.682-2.188 1.6 1.6 0 00-.359-.455c11.188-13.36 29.213-14.932 34.247-15.1l.822 5.369c-6.657-.566-19.349.707-32.049 6.725a1.622 1.622 0 101.389 2.931c13.541-6.416 26.711-7.01 31.68-6.276a66.852 66.852 0 014.922 8.018l-.1.257c-1.345 3.416-2.819 7.931-2.26 12.572a14.216 14.216 0 008.3 11.138 1.621 1.621 0 001.417-.021c.019.221.042.443.057.666.39 5.712.832 13.06 1.26 21.026-6.255 1.962-12.613 5.738-15.945 11.819-8.383 15.3-9.456 51.231-9.529 65.968a1.62 1.62 0 001.613 1.629h.008a1.62 1.62 0 001.621-1.613c.149-30.178 3.561-54.262 9.131-64.426 3.211-5.86 10.994-10.4 19.826-11.562 7.138-.942 13.326.507 16.545 3.872 3.815 3.991 3.147 18.141 2.556 30.626-.175 3.691-.355 7.507-.427 11.039-.3 15.014-.268 30.294-.266 30.446a1.62 1.62 0 001.621 1.617 1.62 1.62 0 001.618-1.624c0-.153-.031-15.4.267-30.375.07-3.487.249-7.282.422-10.951.68-14.413 1.324-28.026-3.452-33.021zm-228.177 8.256a1.526 1.526 0 01-1.59-.8 1.49 1.49 0 01.163-1.721 3.217 3.217 0 011.219-.887 15.891 15.891 0 012.018-.679 3.642 3.642 0 00-1.244 3.881c.012.042.03.082.044.123zm51.335 1.6a1.621 1.621 0 00-.868-.34c-1.233-.1-25.7-2.13-39.265-2.13a59.385 59.385 0 00-6.508.268.979.979 0 01-1.029-.566c-.1-.309.489-.642.671-.737 6.315-3.281 22.46-4.218 22.621-4.228a1.653 1.653 0 00.539-.124l15.206-6.4a1.622 1.622 0 00.332-2.8c-2.013-1.484-5.491-4.279-6.251-5.453-1.345-2.085-1.3-3.044-1.218-3.361.025-.1.088-.336.521-.569a2.225 2.225 0 012.3.241 1.578 1.578 0 00.194.119c4.228 2.18 15.852 8.562 18.826 11.858a17.489 17.489 0 012.024 3.23 77.119 77.119 0 00-8.039 11.034zM189.37 15.822c6.913-7.112 17.169-12.57 27.708-12.57a28.742 28.742 0 0116.249 4.97 1.632 1.632 0 00.92.275c7.774-.068 14.956 3.87 20.277 11.12 6.888 9.381 9.161 22.131 5.794 32.48a81.049 81.049 0 01-7.388 16.247c-3.069-.432-5.943-.062-7.193 1.892s-.108 3.838 1.286 6.005c-3.473 3.631-7.421 6.058-11.7 6.058-.126 0-.254 0-.381-.007h-.045a2.939 2.939 0 01-2.359-1.3c-1.907-2.306-2.951-6.913-3.5-11.775a19.517 19.517 0 005.238-5c.976-1.423 4.05-6.374 2.623-10.393a8.728 8.728 0 00-6.616-5.4 7.568 7.568 0 00-5.865 1.623c-6.992-1.577-19.864-7.484-26.635-23.328a1.622 1.622 0 00-2.593-.552c-1 .924-2.046 1.94-3.121 2.979-3.144 3.043-6.708 6.49-9.448 8a1.626 1.626 0 00-.839 1.433c.01 1.158.12 2.458.258 3.833-4.615-9.223.814-19.888 7.33-26.59zm-1.36 65.525l-.364.267a69.91 69.91 0 01-1.454-4.136c.213-.036.37-.057.37-.057l3.879-.476a10.523 10.523 0 01-2.431 4.403zm23.059 15.568l-2.311-6.288a1.625 1.625 0 00-1.865-1.027c-4.515.976-12.525 1.774-14.79-.231a15.791 15.791 0 01-3.251-4.928c3.5-1.6 4.911-7.64 5.186-9a1.544 1.544 0 00-1.7-1.839l-7.049.864a80.674 80.674 0 01-1.146-4.548 1.627 1.627 0 00-.58-.932c-2.131-1.683-4.19-3.829-4.587-4.749l.346-.458c2.258-2.981 5.352-7.066 6.128-10.542.664-2.972.273-6.749-.072-10.081-.135-1.318-.267-2.579-.323-3.685 2.906-1.834 6.136-4.962 9.271-8 .484-.468.962-.931 1.434-1.382a42.658 42.658 0 0025.979 22.582 1.617 1.617 0 002.567 1.765c.057-.048.168-.152.318-.3 1.933-1.947 3.635-2.8 5.059-2.526a5.489 5.489 0 014.162 3.3c.778 2.19-1.042 5.729-2.24 7.473-2.474 3.607-7.108 6.11-8.6 5.706a1.621 1.621 0 00-.845 3.13 4.288 4.288 0 001.126.141 7.884 7.884 0 002.688-.552c.651 4.932 1.869 9.6 4.065 12.256a6.539 6.539 0 003.622 2.34l1.28 4c-5.932.674-15.211 2.648-23.6 8.325a6.667 6.667 0 00-.272-.814zm27.184-7.8l-1.18-3.685c4.418-.522 8.326-2.985 11.693-6.348a21.958 21.958 0 012.167 5.414c1.758 7.04-.4 13.93-2.984 20.63a63.071 63.071 0 00-4.03-6.2l-1.3-8.487a1.621 1.621 0 00-1.554-1.375c-.194-.011-1.207-.033-2.812.051zm13.031 39.522a10.563 10.563 0 01-4.035-7.111c-.473-3.919.85-7.934 2.056-10.994l.521-1.315c3.205-8.081 6.519-16.439 4.252-25.507a28.769 28.769 0 00-4.2-9.03 8.923 8.923 0 01-1.42-2.678l.01-.018c.238-.372 1.043-.574 2.184-.574a18.967 18.967 0 017.915 2.059c6.76 3.408 9.182 10.457 9.764 12.538 1.563 5.592.444 12.472-2.92 17.953a27.207 27.207 0 01-5.4 5.8c-2.556 2.272-5.2 4.622-6.777 7.953a25.63 25.63 0 00-1.95 10.925z"/></g><path d="M126.508 104.36a3.066 3.066 0 002.7-3.573l-11.739-71.08a3.547 3.547 0 00-3.767-2.9L5.921 36.983a3.087 3.087 0 00-2.788 3.524l10.3 73.381a3.37 3.37 0 003.684 2.854z" fill="#fff"/><path d="M34.687 74.021l8.069-.837-1.645-14.24.45.184-1.024-1.021-.1.086-2.687 2.432-.681 1.341-.495-1.108-3.855-1.9-.117-.058-.553 1.03.131-.091z" fill="#fff"/><path d="M34.687 74.021l-2.5-14.181-.131.09-2.229 1.548s-5.812 2.428-6.565 4.149c-.6 1.385-.44 5.276 0 9.578zm19.396-2.011c-.805-4.231-1.755-8.014-2.728-9.228-1.212-1.513-7.5-2.713-7.5-2.713l-2.3-.94-.45-.183 1.646 14.239z" fill="#a6daf0"/><path d="M28.291 49.727c-.085-.358-.161-.7-.231-1.022 2.529-1.248 6.225-3.832 6.919-4.769a5.851 5.851 0 01-.9 2.134 13.311 13.311 0 004.032-2.6 17.48 17.48 0 014.038 4.2c.018.22.037.448.053.683a1.024 1.024 0 011.274.22c1.195-5.852-4.146-10.573-7.407-9.826-7.41-1.6-12.062 5.268-9.053 11.533a.985.985 0 011.275-.553z" fill="#a7b4bd"/><path d="M43.681 48.823a1.637 1.637 0 00-.2-.254 1.024 1.024 0 00-1.274-.22c-.016-.235-.036-.463-.053-.683a17.48 17.48 0 00-4.038-4.2 13.311 13.311 0 01-4.032 2.6 5.852 5.852 0 00.9-2.134c-.694.938-4.391 3.521-6.919 4.769.07.323.146.664.231 1.022a.985.985 0 00-1.278.549 1.281 1.281 0 00-.073.186 2.571 2.571 0 00.815 2.607 3.276 3.276 0 001.821.916 7.219 7.219 0 001.664 2.737 6.552 6.552 0 001.28.848l.2 1.39 3.856 1.9.495 1.107.681-1.341 2.686-2.432-.182-1.24a5.105 5.105 0 001.96-4.231 3 3 0 001.42-1.221 2.474 2.474 0 00.04-2.675z" fill="#fff"/><path d="M33.718 64.827a.307.307 0 00.219-.124l2.087-2.851a.341.341 0 00-.077-.466.321.321 0 00-.458.055l-2.087 2.851a.34.34 0 00.077.466.331.331 0 00.239.069zm16.987 7.533c-.227-3-.384-5.242-.388-5.3a.347.347 0 00-.349-.324.309.309 0 00-.3.338c0 .059.163 2.329.391 5.354zm-23.937 2.482l.655-.067c-.652-3-1.155-5.249-1.169-5.306a.346.346 0 00-.394-.268.318.318 0 00-.249.388c.012.056.51 2.281 1.157 5.253z" fill="#3a5b73"/><path d="M23.582 75.173c-.433-4.243-.6-8.064-.018-9.4.547-1.252 4.4-3.128 6.143-3.878l-.551 1.658a.347.347 0 00.1.359l1.557 1.445-1.338 2.265a.334.334 0 00-.026.28l2.261 6.425.664-.068-2.254-6.405 1.4-2.366a.342.342 0 00-.068-.421l-1.6-1.482.7-2.1a.366.366 0 00.015-.108l1.393-.969 2.406 13.643.652-.067-2.506-14.192.247-.459 3.692 1.821a.314.314 0 00.432-.149.346.346 0 00-.168-.444l-3.689-1.819-.09-.625a8.129 8.129 0 003.911.711 6.539 6.539 0 003.18-1.256l.071.48-2.563 2.321a.316.316 0 00-.068.089l-.681 1.341c-.005.014-.011.027-.015.041l-.007.019-.005.034-.005.03v.065l1.717 11.628.649-.068-1.7-11.523.608-1.2 2.511-2.266.264.264a.323.323 0 00-.016.141l.5 4.3-.027-.025-2.633-2a.319.319 0 00-.456.059.342.342 0 00.081.465l2.633 2a.341.341 0 00.237.067.3.3 0 00.217-.123l1.1 9.5.649-.067-1.584-13.7 1.826.746 1.271 1.895-1.117 1.751a.339.339 0 00.055.421l2.026 2.011-.342 6.649.662-.068.34-6.668a.35.35 0 00-.1-.265l-1.94-1.925 1.089-1.707a.336.336 0 00-.01-.366l-.968-1.439c1.974.413 5.965 1.428 6.818 2.492.938 1.171 1.865 4.887 2.656 9.061l.645-.067c-.819-4.284-1.792-8.133-2.8-9.395-1.238-1.545-6.872-2.678-7.667-2.831l-2.2-.9-.973-.972a.484.484 0 00-.042-.036l-.109-.741a6.644 6.644 0 001.059-1.189 6.051 6.051 0 00.831-2.705v-.005l.01-.079.016-.152a3.543 3.543 0 001.392-1.279 2.8 2.8 0 00.034-3.037 1.748 1.748 0 00-.131-.178 8.868 8.868 0 00-2-7.345c-1.68-2.005-3.986-3.091-5.77-2.724-3.736-.783-7.083.463-8.964 3.352a8.717 8.717 0 00-.428 8.513c-.01.027-.022.051-.03.078a2.911 2.911 0 00.912 2.957 3.935 3.935 0 001.815.99 7.031 7.031 0 001.669 2.676 6.711 6.711 0 001.188.807l.131.9a.234.234 0 00-.037.053l-.614 1.031-2.045 1.423c-.734.307-5.931 2.54-6.7 4.3-.63 1.438-.469 5.4-.03 9.757zm7.865-18.7a6.813 6.813 0 01-1.565-2.6 20.792 20.792 0 01-.432-1.195.342.342 0 00-.416-.228.317.317 0 00-.206.409c.078.234.156.461.235.678a3.888 3.888 0 01-1.087-.7 2.232 2.232 0 01-.719-2.257.763.763 0 01.615-.582.737.737 0 01.155 0c.042.176.085.35.127.518a.348.348 0 00.365.262l.034-.005a.314.314 0 00.237-.391c-.1-.376-.19-.771-.284-1.182v-.02c-.018-.078-.036-.156-.052-.234a21.846 21.846 0 002.123-1.277.328.328 0 00.019.241.346.346 0 00.342.2.354.354 0 00.1-.026 2.8 2.8 0 011.311-.235.309.309 0 00.334-.306.351.351 0 00-.321-.353 3.469 3.469 0 00-1.329.178 59.264 59.264 0 003.257-2.373 6.673 6.673 0 01-.532.964.342.342 0 00.4.517c.036-.014 3.5-1.374 4.407-3.184a.342.342 0 00-.148-.447.314.314 0 00-.437.126 7.434 7.434 0 01-3.162 2.477 7.457 7.457 0 00.578-1.469.347.347 0 00-.167-.364.318.318 0 00-.385.038c-1.126 1.085-5.984 4.546-7.09 4.864a.317.317 0 00-.206.409.35.35 0 00.3.239l.033.148.005.022a1.233 1.233 0 00-.783.3 8.014 8.014 0 01.555-7.489c1.747-2.683 4.879-3.832 8.377-3.076a.307.307 0 00.141 0c1.531-.351 3.659.666 5.175 2.474a8.212 8.212 0 011.895 6.471 1.314 1.314 0 00-.6-.119.337.337 0 00-.06-.186l-.152-.219-.014-.018a18.147 18.147 0 00-3.175-3.532.32.32 0 00-.458.03.334.334 0 00.055.465 17.422 17.422 0 013.011 3.339c.038.451.07.9.091 1.326a.35.35 0 00.343.329h.031a.308.308 0 00.277-.328c-.01-.174-.02-.351-.033-.529a.8.8 0 01.868.424 2.145 2.145 0 01-.048 2.324 3.377 3.377 0 01-.775.842c.012-.213.022-.432.029-.659a.352.352 0 00-.318-.355.309.309 0 00-.335.3c-.011.442-.034.856-.068 1.24l-.01.086a9.065 9.065 0 01-.026.254 5.566 5.566 0 01-.73 2.486 6.424 6.424 0 01-4.384 2.659 7.762 7.762 0 01-5.317-1.702z" fill="#3a5b73"/><path d="M32.089 49.421a.63.63 0 00-.559.73.7.7 0 00.753.6.629.629 0 00.559-.73.7.7 0 00-.753-.6zm6.514.711a.626.626 0 00.556-.729.7.7 0 00-.75-.6.627.627 0 00-.558.729.7.7 0 00.752.6zm-2.839 2.513c-.253.031-.437.268-.42.4.022.167.286.209.508.2.219-.03.465-.123.437-.288a.525.525 0 00-.522-.306zm2.05-5.332a2.883 2.883 0 011.337-.023.374.374 0 00.1.005.306.306 0 00.273-.257.35.35 0 00-.268-.394 3.5 3.5 0 00-1.646.031.314.314 0 00-.211.4.344.344 0 00.415.238zm.034 7.306a.337.337 0 00-.443-.156 3.947 3.947 0 01-2.709.268.31.31 0 00-.385.239.351.351 0 00.256.4 4.693 4.693 0 001.616.122 4.475 4.475 0 001.534-.435.322.322 0 00.131-.438z" fill="#3a5b73"/><path d="M35.031 49.984l.685-.067c.264 1.215 1.635 2 3.263 1.839 1.685-.165 2.813-1.263 2.624-2.552-.179-1.21-1.453-1.878-3.248-1.7-1.521.149-2.5.816-2.661 1.752l-.832.082c-.424-.88-1.571-1.341-3.1-1.192-1.8.176-2.854 1.074-2.678 2.288.187 1.293 1.6 2.142 3.3 1.975 1.632-.164 2.739-1.193 2.647-2.425zm3.42-1.828c1.066-.1 2.361.124 2.506 1.111.133.9-.779 1.7-2.074 1.83s-2.417-.477-2.548-1.378c-.144-.986 1.049-1.461 2.116-1.561zm-6.162 3.591c-1.3.128-2.422-.478-2.552-1.381-.143-.988 1.055-1.461 2.124-1.565s2.367.123 2.511 1.111c.131.902-.781 1.707-2.081 1.835z" fill="#3a5b73"/><path d="M93.37 34.735c-6.05-2.816-12.23 2.85-10.409 10.029.737 2.912 2.907 9.2 2.907 9.2a22.136 22.136 0 006.906.282 18.4 18.4 0 006.34-1.609s-.018-6.326-.12-9.286c-.224-6.469-4.264-8.947-5.624-8.616z" fill="#a7b4bd"/><path d="M99.199 43.702a1.065 1.065 0 00-1.446-.469c-.016-.208-.036-.407-.053-.6-.141.154-.318.228-.655-.6s-2.242-4.034-3.394-3.443l-.648-.416a1.549 1.549 0 00-.971-.625c-1.222-.133-3.11.659-4.59 3.5-1.181 2.266-1.322 5.9-2 7.57a7.549 7.549 0 001.72 2.86 7.922 7.922 0 002.352 1.352 6.6 6.6 0 01.041 2.393.332.332 0 01-.04.068c.23.791.581 1.823 1 2.974a38.785 38.785 0 005.61-.578c.048-1.159.07-2.2.052-3a.665.665 0 01-.141-.12 6.943 6.943 0 01-.7-2.332 6.908 6.908 0 001.721-1.747 6.37 6.37 0 00.765-2.944 2.879 2.879 0 001.371-1.2 2.456 2.456 0 00.006-2.643z" fill="#fff"/><path d="M96.118 57.687a38.785 38.785 0 01-5.61.578c1.113 3.076 2.694 7.006 3.711 9.489l1.221-.127c.223-2.612.544-6.74.678-9.94z" fill="#fff"/><path d="M90.507 58.265a55.386 55.386 0 01-1-2.974c-.116-.4-.2-.742-.25-1l-1.973 1.659s-4.162 2.214-5.585 4.247c-.7 1-.446 4.7.13 8.843l7.947-.823 4.438-.459c-1.007-2.488-2.593-6.418-3.707-9.493zm14.735-.462c-2.085-1.967-6.727-2.988-6.727-2.988L96.102 53.6a10.85 10.85 0 01.067 1.089c.018.8 0 1.837-.052 3-.131 3.2-.455 7.328-.678 9.94l4.347-.45 7.941-.823c-.704-4.085-1.559-7.678-2.485-8.553z" fill="#bae4f5"/><path d="M104.801 66.658a41.374 41.374 0 00-.5-4.109.346.346 0 00-.365-.29.3.3 0 00-.258.362 41.029 41.029 0 01.493 4.1zm-20.215-2.077a.346.346 0 00-.364-.3h-.005a.305.305 0 00-.267.355 41.722 41.722 0 00.783 4.1l.638-.067a41.163 41.163 0 01-.785-4.088z" fill="#3a5b73"/><path d="M82.154 69.004c-.578-4.15-.823-7.7-.186-8.609 1.113-1.59 4.026-3.334 5.086-3.937l-.489 1.058a.336.336 0 000 .269.352.352 0 00.2.191l1.259.474-.91 1.412a.327.327 0 00-.021.312 53.453 53.453 0 004.31 7.871l.705-.072a52.958 52.958 0 01-4.359-7.871l1.042-1.616a.33.33 0 00.03-.287.359.359 0 00-.206-.212l-1.311-.493.748-1.618a.311.311 0 00.027-.156l.994-.837c.693 2.683 3.331 9.269 4.821 12.905l.653-.068c-.972-2.372-2.482-6.118-3.591-9.146a39.877 39.877 0 004.825-.5c-.142 3.154-.454 7.088-.667 9.584l.655-.067c.324-3.821.853-10.722.7-13.455l1.129.569a.354.354 0 00.083.2l1.216 1.418-1.113.735a.309.309 0 00-.134.246.354.354 0 00.116.272l1.5 1.353a42.074 42.074 0 01-1.922 8.5l.714-.074a42.682 42.682 0 001.862-8.486.349.349 0 00-.115-.3l-1.309-1.184 1.069-.708a.3.3 0 00.133-.224.351.351 0 00-.083-.26l-.853-.992c1.039.258 4.577 1.23 6.274 2.832.843.8 1.67 4.258 2.374 8.349l.642-.066c-.72-4.15-1.61-7.815-2.6-8.751-2.046-1.931-6.345-2.951-6.844-3.063l-1.5-.759a12.475 12.475 0 002.173-.826.3.3 0 00.157-.271c0-.045-.011-3.136-.051-5.994.03-.045.059-.089.083-.128a2.788 2.788 0 000-2.995 1.963 1.963 0 00-.154-.206c-.178-4.873-2.455-7.191-3.427-7.964a3.637 3.637 0 00-2.492-.968 7.466 7.466 0 00-8.035 1.032 9.135 9.135 0 00-2.705 9.4c.733 2.892 2.9 9.161 2.917 9.224a.348.348 0 00.243.226 16.4 16.4 0 002.523.355l-1.233 1.038c-.4.215-4.259 2.321-5.66 4.324-.756 1.077-.513 4.855.067 9.078zm13.654-11.6a38.947 38.947 0 01-5.088.525 52.86 52.86 0 01-.867-2.585 5.438 5.438 0 00.038-2.038 7.027 7.027 0 002.763.335 5.874 5.874 0 002.456-.854 5.561 5.561 0 00.675 1.983.759.759 0 00.067.07c.013.705-.006 1.585-.043 2.563zm2.983-4.984a15.3 15.3 0 01-2.578.886.3.3 0 00-.3.023l-.023.022c-.074-.3-.144-.626-.205-.953a7.125 7.125 0 001.638-1.707 6.251 6.251 0 00.8-2.888v-.011a2.488 2.488 0 00.631-.418c.027 2.21.036 4.393.038 5.045zm.126-6.259a3.241 3.241 0 01-.745.828c.008-.176.014-.357.018-.543a.349.349 0 00-.313-.351.3.3 0 00-.324.3 19.04 19.04 0 01-.06 1.215 5.85 5.85 0 01-.707 2.69 6.142 6.142 0 01-4.233 2.693 7.664 7.664 0 01-5.2-1.758 6.49 6.49 0 01-1.49-2.4 19.3 19.3 0 00.611-2.666 17.676 17.676 0 011.3-4.657 6.1 6.1 0 013.188-3.207 1.793 1.793 0 01.623.355.332.332 0 00.25.083.288.288 0 00.2-.1.333.333 0 00-.049-.459l-.029-.022a.51.51 0 01.111.008 1.2 1.2 0 01.729.477.324.324 0 00.444.1.278.278 0 00.1-.119.36.36 0 00.038.113.331.331 0 00.435.15.45.45 0 01.4.015c.962.4 2.262 2.564 2.537 3.242a1.894 1.894 0 00.671.951c0 .051.01.1.014.149q.037.449.062.883a.35.35 0 00.338.327h.033a.3.3 0 00.267-.323c-.014-.221-.03-.447-.047-.674a.79.79 0 01.85.42 2.134 2.134 0 01-.017 2.279zm-12.814 7.521c-.365-1.063-2.18-6.395-2.836-8.979a8.518 8.518 0 012.51-8.759 6.877 6.877 0 017.476-.914.317.317 0 00.209.023 2.861 2.861 0 012.048.816c.867.688 2.851 2.716 3.136 6.989a1.271 1.271 0 00-.272-.066.343.343 0 00-.129-.394.317.317 0 00-.257-.055c-.272.089-.421.067-.651-.418-.241-.595-1.636-3.1-2.92-3.629a1.08 1.08 0 00-.924 0 .3.3 0 00-.131.138.34.34 0 00-.056-.146 1.9 1.9 0 00-1.217-.772c-1.364-.148-3.364.735-4.887 3.657a18.033 18.033 0 00-1.356 4.831 8.8 8.8 0 01-.964 3.3.343.343 0 00.292.555.3.3 0 00.191-.1 1.544 1.544 0 00.142-.186 6.457 6.457 0 001.448 2.149 8.062 8.062 0 002.265 1.344c.038.31.071.621.089.908a.3.3 0 00-.246.049 19.487 19.487 0 01-2.959-.342z" fill="#3a5b73"/><path d="M87.95 44.589a.611.611 0 00-.537.719.7.7 0 00.741.595.609.609 0 00.537-.719.7.7 0 00-.741-.595zm6.153-.602a.609.609 0 00-.536.718.7.7 0 00.741.593.609.609 0 00.534-.718.7.7 0 00-.739-.593zm-2.466 4.209c.213-.029.452-.12.424-.284a.519.519 0 00-.513-.3c-.247.031-.424.264-.4.394.015.166.273.208.489.19zm3.457-6.271a3.618 3.618 0 00-1.661.034.305.305 0 00-.2.4.34.34 0 00.4.234 3.015 3.015 0 011.372-.029.287.287 0 00.1.005.294.294 0 00.265-.257.35.35 0 00-.276-.387zm-1.951 7.331a3.8 3.8 0 01-2.641.263.3.3 0 00-.373.236.35.35 0 00.254.4 4.578 4.578 0 001.577.123 4.3 4.3 0 001.491-.428.315.315 0 00.124-.435.331.331 0 00-.432-.159zm-6.767-10.612a.319.319 0 00.2.048.289.289 0 00.231-.152 3.874 3.874 0 013.691-2.331 3.17 3.17 0 011.346.522.306.306 0 00.436-.086.339.339 0 00-.115-.451 3.807 3.807 0 00-1.631-.629 4.447 4.447 0 00-4.289 2.63.34.34 0 00.131.449z" fill="#3a5b73"/><path d="M96.722 73.532c-.128.053-.581-.124-.735-.148a7.042 7.042 0 00-.845-.072 6.362 6.362 0 00-4.212 1.461 8.394 8.394 0 00-2.987 5.542c-.544 4.838 2.976 16.226 4.7 17.459a35.678 35.678 0 0012.561-1.389c1.776-2.07.5-12.3-.143-15.426-1.081-5.15-5.398-8.64-8.339-7.427z" fill="#a7b4bd"/><path d="M104.974 83.261a1.062 1.062 0 00-1.456-.465 58.467 58.467 0 00-.083-.9 10.57 10.57 0 01-2.635-1.7 17.537 17.537 0 01-2.149-1.99 11.364 11.364 0 01-2.95 2.764 30.562 30.562 0 01-4.247 2.005 11.808 11.808 0 01-1.736.6l.168.705a.986.986 0 00-1.316.748 2.619 2.619 0 00.834 2.6 3.216 3.216 0 001.8.9 5.757 5.757 0 003.885 3.99 8.487 8.487 0 01.085 2.082l3.558 2.433 2.8-3.087a7.885 7.885 0 01-.555-1.945 6.665 6.665 0 001.851-1.83 6.553 6.553 0 00.766-3 2.938 2.938 0 001.378-1.233 2.518 2.518 0 00.002-2.677z" fill="#fff"/><path d="M101.818 93.633l-.288.318-2.8 3.087-3.558-2.433-.3-.209c.365 2.009 3.1 9.54 4.747 13.483l1.754-.2.01-.1s.696-11.945.435-13.946z" fill="#fff"/><path d="M94.867 94.396s-6.542 3.971-7.666 6.191c-.536 1.059-.212 5.255.2 8.675l9.052-1.024 3.164-.358c-1.65-3.944-4.385-11.475-4.75-13.484zm16.102 3.554c-1.8-1.843-9.152-4.313-9.152-4.313.261 2-.44 13.951-.44 13.951l-.01.1 3.607-.409 8.468-.958c-.664-3.409-1.643-7.522-2.473-8.371z" fill="#fbd5c7"/><path d="M90.285 104.356a.347.347 0 00-.368-.3.317.317 0 00-.273.364c.168 1.185.543 3.514.733 4.507l.641-.072c-.192-.994-.567-3.319-.733-4.499z" fill="#3a5b73"/><path d="M87.725 109.224c-.407-3.406-.727-7.5-.235-8.471.664-1.312 3.383-3.315 5.367-4.656l-.625 1.374a.339.339 0 000 .273.35.35 0 00.2.193l1.269.47-.915 1.443a.338.338 0 00-.021.317 82.342 82.342 0 003.793 8.057l.7-.079a82.172 82.172 0 01-3.833-8.058l1.046-1.65a.339.339 0 00.03-.291.358.358 0 00-.208-.215l-1.32-.489.752-1.65a.339.339 0 000-.271c.38-.249.7-.454.932-.6.608 2.409 3.088 9.307 4.627 12.993l.66-.074c-.85-2.037-2.146-5.978-3.057-8.36l1.981-2 2.514 1.494c-.2 3.454-.32 8.5-.324 8.558l-.018.185.657-.075v-.012c.034-.41.592-10.714.476-13.531.279.1.677.241 1.15.416a.35.35 0 00.085.211l1.226 1.428-1.118.759a.312.312 0 00-.135.25.361.361 0 00.118.275l1.509 1.363a66.02 66.02 0 01-1.315 8.617l.705-.079a66.213 66.213 0 001.269-8.6.356.356 0 00-.116-.3l-1.319-1.191 1.074-.729a.312.312 0 00.134-.228.359.359 0 00-.085-.264l-.939-1.094c2.265.878 5.3 2.184 6.334 3.248.761.782 1.709 4.79 2.372 8.176l.634-.072c-.685-3.472-1.692-7.662-2.569-8.561a18.109 18.109 0 00-5.049-2.8c.8-3.811-.283-11.661-.766-14.014a10.932 10.932 0 00-4.84-7.189 4.5 4.5 0 00-3.912-.506 2.82 2.82 0 01-.333-.083 2.249 2.249 0 00-.273-.07 7.256 7.256 0 00-.885-.077 6.706 6.706 0 00-1.616.159 6.853 6.853 0 00-2.793 1.368 8.688 8.688 0 00-3.1 5.749c-.442 3.916 1.766 12.382 3.661 16.107-1.81 1.293-3.78 2.887-4.371 4.056-.563 1.113-.243 5.386.168 8.876zm8.9-10.434c-.543-1.448-1-2.743-1.254-3.661l2.909 1.989zm2.043-2.183l-3.153-2.156a8.3 8.3 0 00-.048-1.46 7.31 7.31 0 002.924.342 6.077 6.077 0 002.365-.791 8.062 8.062 0 00.39 1.334zm2.754 1.644l-2.169-1.29 2.29-2.526c.014.911-.038 2.302-.12 3.817zm4.116-3.579c-1.877-.761-3.5-1.308-3.636-1.356h-.03a.414.414 0 00-.057-.01h-.03a.322.322 0 00-.052.007l-.029.008a.245.245 0 00-.047.02l-.029.018a11.172 11.172 0 01-.3-1.185 6.948 6.948 0 001.762-1.8 5.94 5.94 0 00.764-2.575v-.007l.005-.057c.011-.1.022-.206.031-.313a3.472 3.472 0 001.349-1.29 3.042 3.042 0 00.2-.387 35.226 35.226 0 01.099 8.928zm-17.274-14.3a8.059 8.059 0 012.873-5.335 6.246 6.246 0 012.547-1.249 6.116 6.116 0 011.468-.145 6.766 6.766 0 01.806.07c.03 0 .12.03.187.051a1.14 1.14 0 00.709.077 3.874 3.874 0 013.391.45 10.21 10.21 0 014.5 6.72c.1.5.213 1.135.324 1.862a1.437 1.437 0 00-1.13-.534.306.306 0 00.109-.154.351.351 0 00-.211-.425 11.608 11.608 0 01-2.987-1.918c-.353-.287-.99-.857-1.422-1.27a.314.314 0 00-.453 0 .336.336 0 00.03.466 29.807 29.807 0 001.464 1.308 14.678 14.678 0 002.667 1.8l.011.107c.037.4.07.789.094 1.165a.347.347 0 00.342.327h.03a.306.306 0 00.268-.332c-.01-.13-.021-.264-.03-.4a.784.784 0 01.856.418 2.185 2.185 0 01-.016 2.328 3.365 3.365 0 01-.749.849c.011-.257.018-.519.019-.8a.35.35 0 00-.317-.351.3.3 0 00-.324.309c0 .515-.023 1-.057 1.437l-.007.077q-.016.193-.037.373a5.372 5.372 0 01-.666 2.322 6.25 6.25 0 01-4.267 2.694 7.564 7.564 0 01-5.222-1.664 6.116 6.116 0 01-1.385-2.156l-.141-.329-.029-.071a24.3 24.3 0 01-.5-1.356.34.34 0 00-.41-.228.317.317 0 00-.2.41c.093.282.189.549.284.808a3.851 3.851 0 01-1.077-.7 2.274 2.274 0 01-.734-2.255.749.749 0 01.6-.586.694.694 0 01.15 0c.033.131.066.261.1.388a.344.344 0 00.361.261l.034-.005a.312.312 0 00.227-.392 58.1 58.1 0 01-.167-.664l-.07-.291c2.556-.72 7.092-2.724 9.149-5.874a.345.345 0 00-.1-.461.307.307 0 00-.443.071c-1.424 2.179-4.108 3.786-6.416 4.771a10.012 10.012 0 002.861-3.461.348.348 0 00-.149-.45.306.306 0 00-.429.128 10.846 10.846 0 01-4.935 4.7l-.021.014c-.18.046-.35.086-.5.118a.312.312 0 00-.234.388.363.363 0 00.127.2 1.258 1.258 0 00-.555.478 16.823 16.823 0 01-.197-4.09zm.841 7.412l.087.086a3.847 3.847 0 001.795.977c.037.09.075.178.113.264l.008.021a6.628 6.628 0 001.558 2.376 7.579 7.579 0 002.126 1.247 11.558 11.558 0 01.094 1.314h-.034a.359.359 0 00-.053.005l-.029.005a.261.261 0 00-.072.03h-.005c-.118.071-1.389.846-2.883 1.886a43.178 43.178 0 01-2.704-8.213z" fill="#3a5b73"/><path d="M110.479 106.65c-.119-1-.469-3.316-.67-4.492a.348.348 0 00-.372-.29.31.31 0 00-.26.37c.2 1.171.548 3.49.667 4.482zM93.656 84.258a.625.625 0 00-.54.735.7.7 0 00.746.6.625.625 0 00.54-.735.7.7 0 00-.746-.6zm6.189-.665a.623.623 0 00-.537.734.7.7 0 00.746.6.623.623 0 00.537-.734.7.7 0 00-.746-.6zm-2.472 4.302c.215-.031.455-.127.427-.293a.52.52 0 00-.517-.3c-.249.034-.427.272-.406.4.015.167.278.208.496.193zm1.531-5.552a.337.337 0 00.416.213 1.981 1.981 0 011.189 0 .3.3 0 00.124.012.3.3 0 00.261-.234.353.353 0 00-.239-.411 2.6 2.6 0 00-1.568.008.315.315 0 00-.183.412zm-.049 6.632a2.76 2.76 0 01-2.582.28.3.3 0 00-.4.19.353.353 0 00.208.429 3.493 3.493 0 001.64.22 3.27 3.27 0 001.519-.565.33.33 0 00.068-.458.323.323 0 00-.453-.096z" fill="#3a5b73"/><path d="M47.36 98.286l-.638-.637-.1.092-3.406 3.272-4.356-2.422-.112-.063-.524.99a811.751 811.751 0 012.748 7.386c.541 1.5 1.677 4.391 2.712 6.986l2.661-.3c.256-2.741.525-5.782.618-7.355.127-2.223.397-7.949.397-7.949z" fill="#fff"/><path d="M43.194 113.941l3.746-.425-2.159-9.1.3-2.318-1.861-1.087-1.476 1.457.955 2.181z" fill="#bae4f5"/><path d="M57.868 102.275c-1.237-1.524-7.651-2.679-7.651-2.679l-2.857-1.31s-.271 5.726-.4 7.943c-.093 1.573-.362 4.615-.618 7.355l2.346-.267 12.019-1.363c-.831-4.423-1.822-8.423-2.839-9.679zm-19.647-2.761l-.081-.215-2.251 1.877s-5.937 2.527-6.708 4.285c-.636 1.449-.448 5.569.019 10.066l12.26-1.39 2.22-.252c-1.035-2.6-2.171-5.483-2.712-6.986a694.385 694.385 0 00-2.747-7.385z" fill="#d0dce3"/><path d="M49.638 88.195a1.619 1.619 0 00-.182-.231 1.025 1.025 0 00-1.305-.238c-.03-.42-.066-.819-.1-1.186a12.328 12.328 0 00-3.224-4.153 5.65 5.65 0 01-.606 1.211 6.107 6.107 0 01-2.873 2.266 9 9 0 00.752-2.772c-.988 1.111-2.913 2.86-4.4 3.227a4.09 4.09 0 00.5-3c-.683 1.415-2.916 4.839-4.18 5.323q.066.3.139.607a1 1 0 00-1.288.573 1.521 1.521 0 00-.073.187 2.614 2.614 0 00.823 2.641 3.262 3.262 0 001.834.914 7.276 7.276 0 001.677 2.767 6.786 6.786 0 001.547.977l.186 1.284 4.356 2.422 3.406-3.272-.21-1.442a6.569 6.569 0 00.935-1.084 6.689 6.689 0 00.822-3.041 3.063 3.063 0 001.427-1.253 2.535 2.535 0 00.037-2.727z" fill="#fff"/><path d="M48.013 82.301l.805.418c.074-.062-2.53-5.134-6.472-4.039a6.25 6.25 0 00-2.434-1.167 5.293 5.293 0 00-3.349.593 5.2 5.2 0 011.89.183 6.416 6.416 0 00-2.131.5 8.085 8.085 0 00-3.574 3.524c.053.066.418-.375 1.106-.789a6.2 6.2 0 00-.932 1.344 9.464 9.464 0 00-.774 5.252 7.885 7.885 0 00.316-1.111 7.172 7.172 0 00.406 2.809 1 1 0 011.288-.573q-.074-.312-.139-.607c1.264-.484 3.5-3.908 4.18-5.323a4.09 4.09 0 01-.5 3c1.486-.368 3.41-2.116 4.4-3.227a9 9 0 01-.752 2.772 6.107 6.107 0 002.873-2.266 5.65 5.65 0 00.606-1.211 12.328 12.328 0 013.224 4.153c.036.368.071.767.1 1.186a1.025 1.025 0 011.305.238 6.5 6.5 0 00-.161-1.673c.4.718.536 1.305.606 1.286a10.2 10.2 0 00-1.887-5.272z" fill="#a7b4bd"/><path d="M32.362 109.319a.347.347 0 00-.4-.269.323.323 0 00-.249.4c.012.06.552 2.478 1.24 5.656l.659-.075a870.075 870.075 0 00-1.25-5.712zm23.865-2.987a.32.32 0 00-.3.347c0 .06.178 2.532.425 5.77l.652-.074c-.246-3.21-.418-5.655-.422-5.715a.35.35 0 00-.355-.328z" fill="#3a5b73"/><path d="M29.525 115.49c-.465-4.44-.655-8.485-.042-9.882.541-1.236 4.236-3.093 6.09-3.923l-.249 1.02a.354.354 0 00.191.4l.782.372-1.1.588a.33.33 0 00-.143.42 48.888 48.888 0 005.484 9.759l.738-.083a49.812 49.812 0 01-5.5-9.631l1.428-.761a.32.32 0 00.168-.3.354.354 0 00-.2-.3l-1.141-.543.333-1.371.005-.031 1.627-1.357c.509 1.355 2.03 5.408 2.656 7.146.536 1.484 1.657 4.336 2.686 6.919l.674-.077c-.19-.474-.383-.958-.574-1.444l-.4-7.451 1.489-.165 1.646 6.937c-.057.636-.116 1.275-.175 1.9l.674-.075c.253-2.726.519-5.73.61-7.283.108-1.821.312-6.056.379-7.474l2.257 1.035.806 1.182-.923.756a.327.327 0 00-.107.334.351.351 0 00.249.258l1.586.422a46.15 46.15 0 01-2.687 10.524l.741-.085a46.4 46.4 0 002.637-10.632.356.356 0 00-.257-.38l-1.226-.327.645-.529a.338.338 0 00.055-.451l-.571-.835c2.078.424 5.908 1.385 6.749 2.422.981 1.21 1.948 5.14 2.765 9.508l.649-.074c-.846-4.478-1.86-8.546-2.918-9.852-1.253-1.546-6.932-2.634-7.8-2.793a.325.325 0 00-.156-.068l-2.615-1.2-.593-.593-.042-.034-.139-.945a6.669 6.669 0 00.856-1.017 6.182 6.182 0 00.827-2.716v-.036c.01-.081.019-.163.027-.246a3.625 3.625 0 001.4-1.311 2.869 2.869 0 00.029-3.087c-.026-.041-.055-.077-.083-.115a.335.335 0 00.175-.007.339.339 0 00.224-.231 10.687 10.687 0 00-1.32-4.623.317.317 0 00.127-.063c.226-.186.079-.461-.075-.749-.976-1.828-3.439-4.668-6.557-3.916a6.582 6.582 0 00-2.451-1.136 5.671 5.671 0 00-3.613.662.344.344 0 00-.1.3.327.327 0 00.154.243 2.736 2.736 0 00-.22.1 8.542 8.542 0 00-3.741 3.704.387.387 0 00.074.323.394.394 0 00.165.116l-.037.074a9.884 9.884 0 00-.794 5.52.377.377 0 00.245.215.336.336 0 00.12.01 8.047 8.047 0 00.321 1.345c-.011.033-.026.061-.036.094a2.959 2.959 0 00.92 3 3.907 3.907 0 001.829.99l.1.245.008.022a6.661 6.661 0 001.579 2.43 6.891 6.891 0 001.456.946l.112.772a.38.38 0 00-.037.055l-.321.608a.324.324 0 00-.206.071l-2.214 1.848c-.791.339-6.05 2.646-6.832 4.432-.66 1.506-.477 5.7-.008 10.252zm13.151-5.026a146.127 146.127 0 01-1.4-3.67 287.19 287.19 0 00-.931-2.532l1.28-1.245.745 1.7zm1.807-6.354l-1.591.176-.757-1.729 1.143-1.128 1.442.843zm-1.33-3.509L39.16 98.38l-.078-.539a7.922 7.922 0 003.68.582 6.671 6.671 0 003.415-1.471l.1.652zm3.473 5.593c-.049.827-.148 2.071-.268 3.465l-1.245-5.246.238-1.848 1.427.8a286.105 286.105 0 01-.147 2.829zm.189-3.566l-3.029-1.691 2.939-2.82.3.3c-.025.529-.114 2.367-.206 4.211zm-13.6-19.6a5.775 5.775 0 01.884-1.274.339.339 0 000-.437.35.35 0 00-.228-.126 8.03 8.03 0 012.6-2.1 6.076 6.076 0 012.024-.474.319.319 0 00.286-.29.352.352 0 00-.23-.358 3.84 3.84 0 00-.318-.1 4.96 4.96 0 011.64-.033 5.978 5.978 0 012.286 1.1.336.336 0 00.287.057c2.681-.746 4.745 1.629 5.615 2.97a.313.313 0 00-.31.115.34.34 0 00.016.421 9 9 0 011.569 3.453.315.315 0 00-.359.395 5.539 5.539 0 01.142.991 1.314 1.314 0 00-.675-.081l-.012-.144a.141.141 0 00.03-.019.334.334 0 00.044-.469 8.112 8.112 0 01-.529-.862 10.682 10.682 0 00-2.973-3.659.329.329 0 00-.283-.048.3.3 0 00-.2.193 5.354 5.354 0 01-.574 1.143 5.566 5.566 0 01-1.96 1.791 12.71 12.71 0 00.44-2.038.351.351 0 00-.189-.359.321.321 0 00-.385.067 13.28 13.28 0 01-3.476 2.838 4.7 4.7 0 00.146-2.433.351.351 0 00-.282-.277.312.312 0 00-.338.171c-.8 1.662-3.158 5.08-4.139 5.2a.319.319 0 00-.271.375.331.331 0 00.049.131 1.255 1.255 0 00-.543.245 6.273 6.273 0 01-.205-2.057.352.352 0 00-.263-.369.3.3 0 00-.148 0 9.532 9.532 0 01.835-3.647zm4.117 13.043a6.2 6.2 0 01-1.422-2.247c-.034-.079-.067-.161-.1-.243l-.048-.118a20.93 20.93 0 01-.462-1.285.345.345 0 00-.418-.23.323.323 0 00-.208.417c.085.26.169.506.257.744a3.834 3.834 0 01-1.1-.707 2.27 2.27 0 01-.726-2.287.782.782 0 01.619-.6.649.649 0 01.154 0c.038.154.075.309.115.467a.348.348 0 00.368.265l.034-.007a.322.322 0 00.238-.4 63.2 63.2 0 01-.245-1.018c1.184-.681 2.706-2.932 3.553-4.363a3.464 3.464 0 01-.528 1.659.341.341 0 00.015.38.338.338 0 00.354.137 9.928 9.928 0 003.792-2.526 6.214 6.214 0 01-.525 1.573.346.346 0 00.048.387.332.332 0 00.372.1 6.362 6.362 0 003.018-2.384 6.041 6.041 0 00.484-.887 10.654 10.654 0 012.433 3.182c.118.206.221.39.32.551l.023.249v.01c.01.093.018.187.026.283v.007l.023.293.005.068c.022.286.041.581.057.883a.352.352 0 00.346.332h.031a.315.315 0 00.279-.336l-.029-.478a.8.8 0 01.871.424 2.2 2.2 0 01-.044 2.361 3.507 3.507 0 01-.779.863c.012-.236.023-.477.029-.73a.353.353 0 00-.321-.357.315.315 0 00-.336.313c-.01.476-.034.923-.071 1.334l-.007.071c-.01.107-.021.21-.033.313a5.628 5.628 0 01-.726 2.478 6.519 6.519 0 01-4.407 2.739 7.714 7.714 0 01-5.325-1.677zm1.55 2.9l3.766 2.1-2.564 2.489c-.608-1.635-1.234-3.3-1.5-4.013z" fill="#3a5b73"/><path d="M37.974 88.905a.644.644 0 00-.562.748.7.7 0 00.757.6.643.643 0 00.562-.746.7.7 0 00-.757-.602zm6.555.666a.642.642 0 00.559-.746.706.706 0 00-.757-.6.642.642 0 00-.559.746.7.7 0 00.757.6zm-2.767 3.179c.22-.031.467-.129.44-.3a.524.524 0 00-.526-.308c-.256.034-.442.276-.422.41.023.172.288.213.508.198zm2.131-5.734a3.133 3.133 0 011.418-.042.341.341 0 00.1.005.314.314 0 00.276-.268.352.352 0 00-.276-.394 3.755 3.755 0 00-1.714.052.321.321 0 00-.213.41.341.341 0 00.409.237zm-5.73-.058a3.728 3.728 0 00-1.681.312.326.326 0 00-.154.44.331.331 0 00.44.176 3.084 3.084 0 011.389-.258.315.315 0 00.334-.317.352.352 0 00-.328-.353zm5.592 7.146a.331.331 0 00-.458-.105 2.944 2.944 0 01-2.66.288.316.316 0 00-.414.2.353.353 0 00.215.432 3.712 3.712 0 001.675.211 3.513 3.513 0 001.56-.563.333.333 0 00.082-.463z" fill="#3a5b73"/><path d="M131.523 101.122l-11.76-72.763a5.346 5.346 0 00-5.675-4.424L4.503 34.212a4.858 4.858 0 00-4.455 5.509l10.486 75a5.413 5.413 0 005.945 4.578l110.909-12.6a4.756 4.756 0 004.135-5.577zm-16.826-73.37a1.258 1.258 0 011.368.958l5.752 35.736-55.165 5.715-5.63-37.328zM5.054 38.135l55.075-5.214 5.633 37.335-56.646 5.868-5.167-36.771a1.147 1.147 0 011.105-1.218zm10.858 77.135a1.276 1.276 0 01-1.432-.988L9.242 77.011l56.656-5.868 5.71 37.853zm110.845-12.488l-54.261 6.113-5.708-37.848 55.174-5.717 5.826 36.212a1.118 1.118 0 01-1.032 1.235z" fill="#3a5b73"/><path d="M163.97 120.827a2.124 2.124 0 00-.976-.95l-31.185-15.543a4.2 4.2 0 00-1.971-.261L14.332 117.122c-.648.074-1.1.384-1 .689l.366 1.111a2.124 2.124 0 00.976.95l31.19 15.542a4.215 4.215 0 001.97.262l115.507-13.05c.648-.072 1.1-.383 1-.688z" fill="#fff"/><path d="M163.97 120.827a2.124 2.124 0 00-.976-.95l-31.185-15.543a4.2 4.2 0 00-1.971-.261L14.332 117.122c-.648.074-1.1.384-1 .689a11.492 11.492 0 00.366 1.94c.137.312.54 1.561.976 1.778l31.19 15.543a4.2 4.2 0 001.97.261l115.507-13.049c1.423-.061.629-3.457.629-3.457z" fill="#e6e6e6"/><path d="M47.43 138.804a5.331 5.331 0 01-2.212-.435l-31.185-15.542a3.974 3.974 0 01-1.587-2.314l-.071-.182a10.1 10.1 0 01-.469-2.27 1.756 1.756 0 01.249-1.289 2.693 2.693 0 012.014-1.091l115.506-13.05a5.623 5.623 0 012.782.407l31.184 15.541a3.5 3.5 0 011.706 1.795c.014.042.026.083.036.126.21.9.6 3.14-.342 4.377a2.135 2.135 0 01-1.575.853L47.997 138.774a4.886 4.886 0 01-.567.03zm-32.489-18.477l31.234 15.567a3 3 0 001.169.119l115.983-13.1a7.025 7.025 0 00-.135-1.542 1.161 1.161 0 00-.256-.19l-31.433-15.667a3.035 3.035 0 00-1.173-.12L14.31 118.5a5.2 5.2 0 00.142.681c.022.048.063.154.113.283a7.909 7.909 0 00.376.863zm147.718 1.1zm-147.945-4.07z" fill="#3a5b73"/><path d="M47.904 134.165a4.732 4.732 0 01-1.927-.372l-27.723-13.817a.829.829 0 01.74-1.483l27.723 13.817a3.416 3.416 0 001.509.18l110.939-12.535a.83.83 0 01.187 1.648L48.411 134.137a4.668 4.668 0 01-.507.028z" fill="#3a5b73"/><path d="M140.627 114.314l-99.6 11.252-14.746-7.35 99.6-11.252zm-21.38 8.71l-36.243 4.094-6.882-3.43 36.243-4.095z" fill="#a7b4bd"/></svg>