<svg xmlns="http://www.w3.org/2000/svg" width="165.946" height="291.687"><rect width="165.946" height="189.499" rx="10" transform="translate(0 102.188)" fill="#fff"/><path d="M88.733 87.819v18.2h6.076v.035l-11.84 13.543-11.836-13.548v-.035h6.076v-18.2z" fill="#b0c8d5"/><rect width="165.946" height="90.5" rx="10" fill="#8caad8"/><rect width="123.706" height="32.988" rx="4.393" transform="translate(21.12 46.444)" fill="#fff"/><path d="M43.774 60.248a14.023 14.023 0 01-2.354.476c-.012.708-.012 1.453-.012 2.1a9.288 9.288 0 012.675-.515c2.135 0 3.64 1.132 3.64 3.074a2.892 2.892 0 01-3.151 3.126 3.027 3.027 0 01-2.457-1.17 8.964 8.964 0 00.643-.965 2.284 2.284 0 001.839.952 1.766 1.766 0 001.826-1.942c0-1.131-.835-1.968-2.366-1.968a8.829 8.829 0 00-2.649.515c0 .977.012 2.366.012 2.7a2.038 2.038 0 01-2.2 2.122 2.094 2.094 0 01-2.276-2.083 3.287 3.287 0 011.583-2.469 8.432 8.432 0 011.658-.926v-2.444c-.887.064-1.877.077-2.958.077l-.012-1.235c1.094.013 2.083 0 2.971-.051v-2.3l1.685.064a.35.35 0 01-.347.3c-.039.489-.052 1.17-.064 1.814a9.3 9.3 0 002.135-.5zm-3.588 4.193c-.4.193-2.07 1.042-2.07 2.186a1.042 1.042 0 102.083-.064c.001-.322.001-1.235-.013-2.122zm7.266-2.8a10.479 10.479 0 00-2.919-1.787l.63-1.055a10.9 10.9 0 013.036 1.762zm9.418-2.897h4.694v7.5h-1.273v-.656H56.87v3.467h-1.26v-3.47h-3.241v.733h-1.208v-7.575h4.449v-1.724l1.569.09c-.012.1-.1.18-.308.219zm-1.26 1.17h-3.241v1.672h3.241zm-3.241 4.5h3.241v-1.7h-3.241zm7.922-4.5H56.87v1.672h3.421zm-3.421 4.5h3.421v-1.7H56.87zm10.391-2.302v4.142c.9 1.414 2.662 1.414 4.682 1.414 1.465 0 3.267-.051 4.424-.129a5.949 5.949 0 00-.4 1.248c-.888.039-2.186.064-3.4.064-2.919 0-4.579 0-5.852-1.544-.6.54-1.235 1.068-1.748 1.48a.218.218 0 01-.155.244l-.643-1.35a22.084 22.084 0 001.891-1.351v-3.086h-1.685v-1.132zm-1.89-4.784a9.95 9.95 0 012.251 2.007l-.965.8a9.73 9.73 0 00-2.186-2.071zm3.665.3h3.357c.271 3.871 1.183 6.984 3.833 8.334a5.363 5.363 0 00-.953.926 7.584 7.584 0 01-3.343-4.874 8.641 8.641 0 01-3.331 4.861 6.112 6.112 0 00-.862-.874c1.8-1.094 2.894-3.177 3.37-5.775l.463.09c-.077-.5-.141-1-.193-1.531h-2.341zm10.459 10.709a15.969 15.969 0 01-.539-4.733 32.328 32.328 0 01.668-5.9l1.659.321a.368.368 0 01-.36.232 22.274 22.274 0 00-.759 5.954 11.662 11.662 0 00.078 1.685c.231-.63.694-1.775.926-2.315l.72.81a14.811 14.811 0 00-1.273 3.254 2.373 2.373 0 00.1.6zm3.344-7.768c.553.026 2.43.013 3.023-.039a72.1 72.1 0 01-.1-2.919l1.685.064c-.013.129-.116.232-.322.27-.013.734 0 1.351.039 2.5a13.108 13.108 0 002.366-.488l.129 1.26a12.928 12.928 0 01-2.456.412c.051 1.286.115 2.61.154 3.446a9.524 9.524 0 012.508 1.556l-.682 1.183a6.633 6.633 0 00-1.787-1.338c-.065 1.286-.58 2.1-2.289 2.1-1.544 0-2.521-.8-2.521-1.968 0-1.324 1.273-1.993 2.534-1.993a5.181 5.181 0 01.977.115c-.051-.733-.1-1.929-.167-3.009-.386.012-.875.039-1.2.039h-1.878zm3.357 5.3a3.1 3.1 0 00-1.08-.206c-.694 0-1.453.245-1.453.926 0 .6.643.887 1.428.887s1.119-.412 1.119-1.221zm15.719 1.928a26.1 26.1 0 01-3.91.27 14.4 14.4 0 01-2.585-.167 2.576 2.576 0 01-2.289-2.547 4.1 4.1 0 011.248-2.726l1.094.515a3.058 3.058 0 00-1.042 2.019 1.6 1.6 0 001.454 1.544 11.048 11.048 0 001.967.141 21.067 21.067 0 003.962-.36zm-6.045-6.584a14.7 14.7 0 011.942-1.312v-.013a38.227 38.227 0 01-4.077.142c0-.322 0-.952-.026-1.248 1.222.026 3.871-.026 5.028-.1a18.431 18.431 0 002.367-.3l.115 1.324a10.184 10.184 0 00-4.27 2.1zm18.749-1.273a31.3 31.3 0 01-5.3.72 15.459 15.459 0 01-.528 2.919 6.139 6.139 0 013.409-1.209c1.839 0 3.086.952 3.086 2.816 0 2.611-2.52 3.524-6.8 3.615a6.3 6.3 0 00-.373-1.171c3.652-.09 5.864-.681 5.864-2.418 0-1.028-.656-1.685-1.981-1.685a4.933 4.933 0 00-3.717 1.891l-1.247-.566a10.259 10.259 0 001.028-4.18h-2.881v-1.248c.566.026 2.045.026 2.984.026.051-.707.077-1.517.064-2.264l1.736.167c-.039.206-.18.257-.4.3a85.521 85.521 0 01-.1 1.762 25.316 25.316 0 004.952-.759zm6.718-.053a.368.368 0 01-.334.219 11.749 11.749 0 01-.528 3.446h.013a8.58 8.58 0 014.476-1.428c1.9 0 3.216 1.028 3.2 2.881-.026 2.418-1.929 3.55-6.984 3.743a9.119 9.119 0 00-.463-1.17c4.373-.193 6.057-.862 6.071-2.547.012-1.067-.759-1.748-2.084-1.748-2.006 0-4.128 1.208-4.552 2.006l-1.209-.54c.271-.231.733-2.637.759-5.067zm-.026-2.61a21.657 21.657 0 014.965 1.067l-.425 1.247a22.317 22.317 0 00-4.926-1.132z" fill="#8caad8"/><rect width="123.706" height="21.299" rx="4.393" transform="translate(21.12 130.862)" fill="#fff" stroke="#4b4b4b" stroke-miterlimit="10" stroke-width=".567"/><path d="M26.251 115.668c-.013.089-.039.167-.052.231a18.177 18.177 0 01-1.028 5.543 10.566 10.566 0 011.312 1.39l-.785.99a10.355 10.355 0 00-1.067-1.235 6.436 6.436 0 01-2.289 2.4 4.876 4.876 0 00-.72-.99 5.167 5.167 0 002.122-2.251c-.322-.3-.643-.579-.977-.836l-.115.489-.99-.566c.283-1.08.6-2.585.9-4.128h-1.016v-1.132h1.235a75.22 75.22 0 00.438-2.637l1.44.154c-.026.1-.1.167-.308.181-.115.708-.27 1.492-.425 2.3h1.492l.206-.026zm-2.56 1.042a254.32 254.32 0 01-.629 3c.373.283.784.591 1.17.926a15.924 15.924 0 00.784-3.922zm6.958 6.842h2.924v1.157h-7.382v-1.157h3.241v-2.778h-2.328v-1.132h2.328v-2.585h-1.459a8.579 8.579 0 01-.887 2.031 5.551 5.551 0 00-.952-.617 13.035 13.035 0 001.376-4.8l1.428.3c-.039.1-.129.154-.3.154-.09.591-.205 1.2-.347 1.775h1.132v-2.906l1.517.077c-.013.116-.1.193-.3.219v2.611h2.65v1.158h-2.65v2.585h2.367v1.132H30.64z" fill="#4b4b4b"/><path d="M39.753 113.857l.965.553-1.4 1.814v.026l2.187-.322v1.094l-2.187-.3v.039l1.415 1.749-.99.578-.875-2.083-.025.013-.9 2.083-.926-.579 1.4-1.787v-.026l-2.148.308v-1.094l2.123.309.012-.026-1.389-1.775.977-.566.874 2.058h.026z" fill="red"/><rect width="123.706" height="21.299" rx="4.393" transform="translate(21.12 180.345)" fill="#fff" stroke="#4b4b4b" stroke-miterlimit="10" stroke-width=".567"/><path d="M32.643 168.792v5.7h-1.26v-.5h-4.964v.476h-1.2v-3.961a16.254 16.254 0 01-3.1 1.4 4.374 4.374 0 00-.694-1.094 14.58 14.58 0 004.694-2.379 12.949 12.949 0 00-1.878-1.633l.913-.772a14.742 14.742 0 011.942 1.569 10.694 10.694 0 002.161-2.791h-3.7a13.768 13.768 0 01-3.2 2.688 4.245 4.245 0 00-.849-.939 11.091 11.091 0 004.27-4.18l1.569.27c-.039.128-.142.192-.322.192-.18.284-.373.579-.591.875h3.537l.193-.064.887.463a.453.453 0 01-.18.167 12.194 12.194 0 01-3.267 4.514zm-6.224 4.077h4.964v-2.984h-4.964z" fill="#4b4b4b"/><path d="M38.755 163.339l.964.553-1.4 1.814v.026l2.186-.322v1.094l-2.186-.3v.039l1.414 1.749-.99.578-.874-2.083-.026.013-.9 2.083-.926-.579 1.4-1.787v-.026l-2.148.308v-1.094l2.122.309.013-.026-1.39-1.775.978-.566.874 2.058h.026z" fill="red"/><path d="M33.428 217.143h-3.087a8.886 8.886 0 003.37 2.327 5.2 5.2 0 00-.811.965 10.4 10.4 0 01-3.922-3.292h-2.791a9.565 9.565 0 01-1.672 1.851 11.766 11.766 0 003.344-1.312l1.132.489a.3.3 0 01-.271.1 14.3 14.3 0 01-3.742 1.5 5.559 5.559 0 00-.6-.669 10.242 10.242 0 01-2.2 1.389 5.885 5.885 0 00-.824-.887 8.832 8.832 0 003.37-2.469h-3.01v-1.042h3.756a9.467 9.467 0 00.527-1.016c-1.222.039-2.327.064-3.216.09a.256.256 0 01-.219.193l-.45-1.273c.643-.012 1.415-.012 2.277-.026a15.447 15.447 0 001.338-2.161l1.44.464c-.039.09-.154.129-.322.129a19 19 0 01-1.118 1.543c1.389-.026 2.906-.064 4.411-.09a16.018 16.018 0 00-1.286-.977l.965-.579a17.6 17.6 0 013.24 2.713c-.424.3-.732.464-1.028.643a10.084 10.084 0 00-.836-.887c-1.248.064-2.52.115-3.743.154l.116.039c-.039.1-.155.154-.322.154a9.4 9.4 0 01-.412.887h6.6zm-1.363 3.935c-.039.09-.142.142-.309.129-1.582 1.517-4.476 2.379-7.78 2.8a4.158 4.158 0 00-.566-1.016c3.086-.3 5.954-1.042 7.369-2.418zm-1.762-1.428a.309.309 0 01-.283.116 15.2 15.2 0 01-5.157 2.044 3.787 3.787 0 00-.656-.874 13.037 13.037 0 004.926-1.788zm9.805-5.272l.642.038c0 .09-.012.257-.012.4-.1 5.787-.193 7.729-.579 8.283-.4.617-.849.643-2.315.6a3.011 3.011 0 00-.347-1.222c.5.039.965.051 1.183.051a.417.417 0 00.412-.232c.257-.36.36-2.006.45-6.725H37.87c-.115 3.382-.54 6.43-2.122 8.385a4.083 4.083 0 00-.913-.849c1.4-1.71 1.762-4.4 1.852-7.536H35.08v-1.2h1.633c.013-.8.013-1.621.013-2.457l1.544.078c-.026.141-.129.219-.348.244 0 .72-.012 1.428-.025 2.135zm1.7-1h4.489v10.152h-1.209v-.823h-2.11v.913h-1.17zm1.17 8.141h2.11v-6.957h-2.11zm6.566-8.814h8.565v11.009h-1.3v-.8h-6.02v.848h-1.247zm7.266 1.235h-6.02v3.223h6.02zm-6.02 7.742h6.02v-3.3h-6.02z" fill="#4b4b4b"/><path d="M67.388 212.822l.964.553-1.4 1.814v.026l2.187-.322v1.094l-2.187-.3v.039l1.417 1.751-.99.578-.874-2.083-.026.013-.9 2.083-.926-.579 1.4-1.787v-.026l-2.148.308v-1.094l2.122.309.013-.026-1.39-1.775.978-.566.874 2.058h.026z" fill="red"/><path d="M39.242 236.582a5.787 5.787 0 11-5.788 5.787 5.78 5.78 0 015.788-5.787zm5.273 5.787a5.273 5.273 0 10-5.273 5.273 5.281 5.281 0 005.27-5.273z" fill="#06c655"/><path d="M55.977 242.819h3.537v1.067h-3.537zm11.315 5.024h-1.08l3.678-10.583h1.089zm10.299-5.024h3.536v1.067h-3.536zm18.874-.386c0-3.164 1.2-5.015 3.2-5.015 2.044 0 3.074 1.98 3.074 4.913 0 3.279-1.183 5.067-3.177 5.067-2.014 0-3.097-1.994-3.097-4.965zm4.772-.051c0-2.3-.489-3.781-1.621-3.781-.977 0-1.646 1.363-1.646 3.781s.592 3.819 1.621 3.819c1.257 0 1.646-1.813 1.646-3.819zm4.308.051c0-3.164 1.2-5.015 3.2-5.015 2.044 0 3.074 1.98 3.074 4.913 0 3.279-1.183 5.067-3.177 5.067-2.017 0-3.097-1.994-3.097-4.965zm4.771-.051c0-2.3-.488-3.781-1.621-3.781-.977 0-1.646 1.363-1.646 3.781s.591 3.819 1.621 3.819c1.26 0 1.648-1.813 1.648-3.819zm4.323-1.639a.957.957 0 01.952-1.016 1.011 1.011 0 11-.952 1.016zm0 5.067a.958.958 0 01.952-1.016.943.943 0 01.952 1.016.953.953 0 11-1.9 0zm4.581-3.377c0-3.164 1.2-5.015 3.2-5.015 2.044 0 3.074 1.98 3.074 4.913 0 3.279-1.183 5.067-3.177 5.067-2.017 0-3.097-1.994-3.097-4.965zm4.772-.051c0-2.3-.489-3.781-1.621-3.781-.977 0-1.646 1.363-1.646 3.781s.591 3.819 1.621 3.819c1.259 0 1.646-1.813 1.646-3.819zm4.308.051c0-3.164 1.2-5.015 3.2-5.015 2.045 0 3.075 1.98 3.075 4.913 0 3.279-1.183 5.067-3.177 5.067-2.017 0-3.098-1.994-3.098-4.965zm4.771-.051c0-2.3-.488-3.781-1.621-3.781-.977 0-1.646 1.363-1.646 3.781s.591 3.819 1.621 3.819c1.256 0 1.646-1.813 1.646-3.819z" fill="#4b4b4b"/><path d="M39.242 253.531a5.787 5.787 0 11-5.788 5.788 5.78 5.78 0 015.788-5.788zm5.273 5.788a5.273 5.273 0 10-5.273 5.272 5.28 5.28 0 005.27-5.272z" fill="#06c655"/><path d="M55.977 259.769h3.537v1.067h-3.537zm11.315 5.028h-1.08l3.678-10.584h1.089zm10.299-5.028h3.536v1.067h-3.536zm18.874-.387c0-3.164 1.2-5.015 3.2-5.015 2.044 0 3.074 1.98 3.074 4.913 0 3.279-1.183 5.067-3.177 5.067-2.014 0-3.097-1.994-3.097-4.965zm4.772-.051c0-2.3-.489-3.781-1.621-3.781-.977 0-1.646 1.363-1.646 3.781s.592 3.82 1.621 3.82c1.257 0 1.646-1.814 1.646-3.82zm4.308.051c0-3.164 1.2-5.015 3.2-5.015 2.044 0 3.074 1.98 3.074 4.913 0 3.279-1.183 5.067-3.177 5.067-2.017 0-3.097-1.994-3.097-4.965zm4.771-.051c0-2.3-.488-3.781-1.621-3.781-.977 0-1.646 1.363-1.646 3.781s.591 3.82 1.621 3.82c1.26 0 1.648-1.814 1.648-3.82zm4.323-1.639a.957.957 0 01.952-1.016 1.011 1.011 0 11-.952 1.016zm0 5.067a.957.957 0 01.952-1.016.943.943 0 01.952 1.016.953.953 0 11-1.9 0zm4.581-3.377c0-3.164 1.2-5.015 3.2-5.015 2.044 0 3.074 1.98 3.074 4.913 0 3.279-1.183 5.067-3.177 5.067-2.017 0-3.097-1.994-3.097-4.965zm4.772-.051c0-2.3-.489-3.781-1.621-3.781-.977 0-1.646 1.363-1.646 3.781s.591 3.82 1.621 3.82c1.259 0 1.646-1.814 1.646-3.82zm4.308.051c0-3.164 1.2-5.015 3.2-5.015 2.045 0 3.075 1.98 3.075 4.913 0 3.279-1.183 5.067-3.177 5.067-2.017 0-3.098-1.994-3.098-4.965zm4.771-.051c0-2.3-.488-3.781-1.621-3.781-.977 0-1.646 1.363-1.646 3.781s.591 3.82 1.621 3.82c1.256 0 1.646-1.814 1.646-3.82z" fill="#4b4b4b"/><path d="M39.242 270.483a5.788 5.788 0 11-5.788 5.788 5.78 5.78 0 015.788-5.788zm5.273 5.788a5.273 5.273 0 10-5.273 5.273 5.281 5.281 0 005.27-5.277z" fill="#06c655"/><path d="M55.977 276.717h3.537v1.067h-3.537zm11.315 5.028h-1.08l3.678-10.584h1.089zm10.299-5.028h3.536v1.067h-3.536zm18.874-.386c0-3.164 1.2-5.016 3.2-5.016 2.044 0 3.074 1.98 3.074 4.913 0 3.28-1.183 5.067-3.177 5.067-2.014 0-3.097-1.99-3.097-4.964zm4.772-.051c0-2.3-.489-3.781-1.621-3.781-.977 0-1.646 1.362-1.646 3.781s.592 3.819 1.621 3.819c1.257 0 1.646-1.814 1.646-3.819zm4.308.051c0-3.164 1.2-5.016 3.2-5.016 2.044 0 3.074 1.98 3.074 4.913 0 3.28-1.183 5.067-3.177 5.067-2.017 0-3.097-1.99-3.097-4.964zm4.771-.051c0-2.3-.488-3.781-1.621-3.781-.977 0-1.646 1.362-1.646 3.781s.591 3.819 1.621 3.819c1.26 0 1.648-1.814 1.648-3.819zm4.323-1.64a.958.958 0 01.952-1.016 1.011 1.011 0 11-.952 1.016zm0 5.067a.957.957 0 01.952-1.016.943.943 0 01.952 1.016.953.953 0 11-1.9 0zm4.581-3.376c0-3.164 1.2-5.016 3.2-5.016 2.044 0 3.074 1.98 3.074 4.913 0 3.28-1.183 5.067-3.177 5.067-2.017 0-3.097-1.99-3.097-4.964zm4.772-.051c0-2.3-.489-3.781-1.621-3.781-.977 0-1.646 1.362-1.646 3.781s.591 3.819 1.621 3.819c1.259 0 1.646-1.814 1.646-3.819zm4.308.051c0-3.164 1.2-5.016 3.2-5.016 2.045 0 3.075 1.98 3.075 4.913 0 3.28-1.183 5.067-3.177 5.067-2.017 0-3.098-1.99-3.098-4.964zm4.771-.051c0-2.3-.488-3.781-1.621-3.781-.977 0-1.646 1.362-1.646 3.781s.591 3.819 1.621 3.819c1.256 0 1.646-1.814 1.646-3.819z" fill="#4b4b4b"/><g transform="translate(8.919 4.71)"><circle cx="15.855" cy="15.855" r="15.855" fill="#ccedff"/><path d="M24.576 24.933H7.134a.6.6 0 01-.6-.6 8.2 8.2 0 015.615-8.142 5.388 5.388 0 01-1.667-3.887V10.95a5.372 5.372 0 1110.744 0v1.354a5.388 5.388 0 01-1.667 3.887 8.2 8.2 0 015.615 8.142.6.6 0 01-.598.6zM7.749 23.737h16.21a6.966 6.966 0 00-5.854-6.7.6.6 0 01-.177-1.105 4.19 4.19 0 002.1-3.623v-1.354a4.175 4.175 0 10-8.351 0v1.354a4.19 4.19 0 002.1 3.623.6.6 0 01-.176 1.105 6.967 6.967 0 00-5.852 6.7z" fill="#fff"/></g></svg>