<?xml version="1.0" encoding="UTF-8"?>
<svg id="_レイヤー_2" data-name="レイヤー 2" xmlns="http://www.w3.org/2000/svg" viewBox="0 0 200 200">
  <defs>
    <style>
      .cls-1 {
        fill: #fff;
      }

      .cls-2 {
        fill: #06c755;
      }
    </style>
  </defs>
  <g id="LINE_LOGO" data-name="LINE LOGO">
    <g>
      <rect class="cls-2" width="200" height="200" rx="45.09" ry="45.09"/>
      <g>
        <path class="cls-1" d="m166.66,90.58c0-29.84-29.91-54.11-66.68-54.11s-66.68,24.28-66.68,54.11c0,26.75,23.72,49.15,55.77,53.39,2.17.47,5.13,1.43,5.87,3.29.67,1.69.44,4.33.22,6.03,0,0-.78,4.71-.95,5.71-.29,1.68-1.34,6.59,5.78,3.59,7.12-3,38.4-22.61,52.39-38.71h0c9.66-10.6,14.29-21.35,14.29-33.29Z"/>
        <g>
          <path class="cls-2" d="m144.48,107.81h-18.73c-.7,0-1.27-.57-1.27-1.27v-.02h0v-29.05h0v-.03c0-.7.57-1.27,1.27-1.27h18.73c.7,0,1.27.57,1.27,1.27v4.73c0,.7-.57,1.27-1.27,1.27h-12.73v4.91h12.73c.7,0,1.27.57,1.27,1.27v4.73c0,.7-.57,1.27-1.27,1.27h-12.73v4.91h12.73c.7,0,1.27.57,1.27,1.27v4.73c0,.7-.57,1.27-1.27,1.27Z"/>
          <path class="cls-2" d="m75.18,107.81c.7,0,1.27-.57,1.27-1.27v-4.73c0-.7-.57-1.27-1.27-1.27h-12.73v-23.1c0-.7-.57-1.27-1.27-1.27h-4.73c-.7,0-1.27.57-1.27,1.27v29.08h0v.02c0,.7.57,1.27,1.27,1.27h18.73Z"/>
          <rect class="cls-2" x="80.46" y="76.16" width="7.28" height="31.65" rx="1.27" ry="1.27"/>
          <path class="cls-2" d="m118.65,76.16h-4.73c-.7,0-1.27.57-1.27,1.27v17.28l-13.31-17.98s-.07-.09-.1-.13c0,0,0,0,0,0-.02-.03-.05-.05-.08-.08,0,0-.02-.01-.02-.02-.02-.02-.05-.04-.07-.06-.01,0-.02-.02-.03-.03-.02-.02-.04-.03-.07-.05-.01,0-.03-.02-.04-.02-.02-.01-.05-.03-.07-.04-.01,0-.03-.01-.04-.02-.02-.01-.05-.02-.07-.03-.01,0-.03-.01-.04-.02-.03,0-.05-.02-.08-.02-.01,0-.03,0-.05-.01-.03,0-.05-.01-.08-.02-.02,0-.04,0-.05,0-.02,0-.05,0-.07,0-.02,0-.05,0-.07,0-.01,0-.03,0-.04,0h-4.7c-.7,0-1.27.57-1.27,1.27v29.1c0,.7.57,1.27,1.27,1.27h4.73c.7,0,1.27-.57,1.27-1.27v-17.28l13.33,18c.09.13.2.24.33.32,0,0,0,0,.01.01.03.02.05.03.08.05.01,0,.02.01.04.02.02.01.04.02.06.03.02,0,.04.02.06.03.01,0,.03,0,.04.01.03.01.06.02.09.03,0,0,.01,0,.02,0,.11.03.22.04.33.04h4.7c.7,0,1.27-.57,1.27-1.27v-29.1c0-.7-.57-1.27-1.27-1.27Z"/>
        </g>
      </g>
    </g>
  </g>
</svg>